<svg xmlns="http://www.w3.org/2000/svg" id="Layer_1" version="1.1" viewBox="0 0 64 64" xml:space="preserve"><style type="text/css" id="style2"></style><g id="g7"><g id="Icon-Gear" transform="translate(226 426)"><path d="M28.6 8.2L26.7 14c-1.3.3-2.5.9-3.7 1.5l-5.5-2.8-4.8 4.8 2.8 5.5c-.6 1.2-1.1 2.4-1.5 3.7l-5.8 1.9v6.8l5.8 1.9c.3 1.3.9 2.5 1.5 3.7l-2.8 5.5 4.8 4.8 5.5-2.8c1.2.6 2.4 1.1 3.7 1.5l1.9 5.8h6.8l1.9-5.8c1.3-.3 2.5-.9 3.7-1.5l5.5 2.8 4.8-4.8-2.8-5.5c.6-1.2 1.1-2.4 1.5-3.7l5.8-1.9v-6.8L50 26.7c-.3-1.3-.9-2.5-1.5-3.7l2.8-5.5-4.8-4.8-5.5 2.8c-1.2-.6-2.4-1.1-3.7-1.5l-1.9-5.8h-6.8zM32 20.7c6.2 0 11.3 5.1 11.3 11.3 0 6.2-5.1 11.3-11.3 11.3-6.2 0-11.3-5.1-11.3-11.3 0-6.2 5.1-11.3 11.3-11.3z" transform="translate(-226 -426)" id="Fill-46" fill="#ff8080" fill-opacity="1" stroke="#000" stroke-opacity="1"/></g></g></svg>