<svg xmlns="http://www.w3.org/2000/svg" cursor="default" version="1.1" viewBox="0 0 256 256">
    <path d="M81.188 176.632s.187 20.977.341 33.076c.056 4.375 1.07 5.204 4.992 5.187 8.95-.038 12.784-.097 12.784-.097l.013-9.395s.578-.02-4.058-.056c-5.84-.044-5.134.942-5.17-5.133-.06-9.668-.09-16.832-.09-16.832zm93.624 0s-.187 20.977-.341 33.076c-.056 4.375-1.07 5.204-4.992 5.187-8.95-.038-12.784-.097-12.784-.097l-.013-9.395s-.578-.02 4.058-.056c5.84-.044 5.134.942 5.17-5.133.06-9.668.09-16.832.09-16.832zM81.188 81.585s.187-20.977.341-33.076c.056-4.374 1.07-5.203 4.992-5.186 8.95.038 12.784.097 12.784.097l.013 9.394s.578.02-4.058.056c-5.84.045-5.134-.942-5.17 5.134-.06 9.667-.09 16.83-.09 16.83zm93.624 0s-.187-20.977-.341-33.076c-.056-4.374-1.07-5.203-4.992-5.186-8.95.038-12.784.097-12.784.097l-.013 9.394s-.578.02 4.058.056c5.84.045 5.134-.942 5.17 5.134.06 9.667.09 16.83.09 16.83z" fill="#ffe680" stroke="#000" stroke-linecap="butt" stroke-linejoin="miter" stroke-opacity="1" stroke-width="1"/>
    <path d="M128 247.438c-1.188.04-29.508.956-31.588-4.493-.09-.234-2.825-13.741-3.754-27.311-.837-12.231-.09-12.309-.09-12.309l35.432.232 35.432-.232s.747.078-.09 12.309c-.929 13.57-3.664 27.077-3.754 27.31-2.08 5.45-30.4 4.534-31.588 4.494zm0-236.648c-1.188-.04-29.508-.956-31.588 4.494-.09.234-2.825 13.74-3.754 27.31-.837 12.23-.09 12.309-.09 12.309L128 54.672l35.432.231s.747-.077-.09-12.308c-.929-13.57-3.664-27.077-3.754-27.311-2.08-5.45-30.4-4.534-31.588-4.493z" fill="#ff8080" stroke="#000" stroke-linecap="butt" stroke-linejoin="miter" stroke-opacity="1" stroke-width="1"/>
    <g fill="#ffe680" stroke="#000">
        <path d="m198.866 134.241 6.125.063-.124-10.75-6.188-.063z" fill-rule="evenodd"/>
        <path d="m202.051 135.98 5.875-.062c.811-.64.781-13.72.313-14.25l-6.188-.063z" fill-rule="evenodd"/>
        <path d="m202.261 134.09 5.778-.088m-5.963-1.958c.154.022 6.272-.066 6.272-.066m-6.352-2.13 6.1.044m-6.122-2.01 6.143.043m-6.055-2.232 6.254.09m-6.276-2.189 6.364.155" stroke-width=".5"/>
    </g>
    <g fill="#ffe680" fill-rule="evenodd" stroke="#000">
        <path d="m187.473 168.842 5.273 3.117 5.267-9.372-5.327-3.149z"/>
        <path d="m189.362 171.94 5.119 2.884c1.022-.15 7.536-11.491 7.396-12.184l-5.328-3.15z"/>
    </g>
    <g fill="#ffe680" fill-rule="evenodd" stroke="#000">
        <path d="m192.092 97.388 5.336-3.008-5.482-9.248-5.39 3.04z"/>
        <path d="m195.72 97.302 5.057-2.992c.382-.96-6.184-12.272-6.854-12.497l-5.39 3.04z"/>
    </g>
    <ellipse fill="#ffb380" cx="128.07" cy="129.11" stroke="#000" rx="72.59" ry="73.215"/>
    <ellipse fill="#232323" fill-opacity="1" cx="128.07" cy="129.11" stroke="#000" stroke-width=".886" rx="64.303" ry="64.857"/>
    <ellipse fill="#232323" fill-opacity="1" cx="128.07" cy="129.11" stroke="#000" stroke-width=".846" rx="61.405" ry="61.934"/>
    <g id = "patternLayer">
        <path id="patternLayer" d="M122.855 10.709c-8.563-.02-24.883.487-26.443 4.574-.09.234-2.825 13.742-3.754 27.313-.837 12.23-.09 12.308-.09 12.308L128 54.672l35.432.232s.747-.078-.09-12.308c-.929-13.57-3.665-27.079-3.754-27.313-2.08-5.45-30.4-4.533-31.588-4.492-.297-.01-2.29-.076-5.145-.082zM92.568 203.324s-.747.078.09 12.309c.929 13.57 3.665 27.078 3.754 27.312 2.08 5.45 30.4 4.533 31.588 4.493 1.188.04 29.507.957 31.588-4.493.09-.234 2.825-13.742 3.754-27.312.837-12.23.09-12.309.09-12.309l-35.432.233-35.432-.233z" fill="#ff8080"/>
    </g>
</svg>