<?xml version="1.0" encoding="UTF-8" standalone="no"?>
<svg
   cursor="default"
   version="1.1"
   viewBox="0 0 256 256"
   id="svg4"
   sodipodi:docname="analogue_time.svg"
   inkscape:version="1.1.1 (3bf5ae0d25, 2021-09-20)"
   xmlns:inkscape="http://www.inkscape.org/namespaces/inkscape"
   xmlns:sodipodi="http://sodipodi.sourceforge.net/DTD/sodipodi-0.dtd"
   xmlns="http://www.w3.org/2000/svg"
   xmlns:svg="http://www.w3.org/2000/svg">
  <defs
     id="defs8" />
  <sodipodi:namedview
     id="namedview6"
     pagecolor="#505050"
     bordercolor="#eeeeee"
     borderopacity="1"
     inkscape:pageshadow="0"
     inkscape:pageopacity="0"
     inkscape:pagecheckerboard="0"
     showgrid="false"
     inkscape:zoom="3.9719514"
     inkscape:cx="116.81915"
     inkscape:cy="123.99447"
     inkscape:window-width="1920"
     inkscape:window-height="1057"
     inkscape:window-x="-8"
     inkscape:window-y="-8"
     inkscape:window-maximized="1"
     inkscape:current-layer="svg4" />
  <g
     id="g1215"
     transform="matrix(0.97512458,0,0,0.97512458,3.1237224,8.9602021)"
     style="fill:#ffffff">
    <g
       id="g1829"
       style="fill:#ffffff">
      <path
         style="fill:#ffffff;fill-opacity:1;stroke-width:0.778596"
         d="m 127.07187,158.83097 c 0.32814,-1.70389 2.59048,-1.94494 2.59048,-0.27602 0,0.63648 -0.64496,1.28144 -1.43325,1.43325 -1.04051,0.20039 -1.35761,-0.11672 -1.15723,-1.15723 z m 17.4249,-1.75605 c -0.25068,-0.40562 -0.12392,-0.9426 0.2817,-1.19329 0.40563,-0.25069 0.94261,-0.12393 1.1933,0.2817 0.25069,0.40562 0.12392,0.9426 -0.2817,1.19329 -0.40562,0.25069 -0.94261,0.12393 -1.1933,-0.2817 z m -34.29147,-0.85779 c 0.26898,-0.43521 0.81521,-0.58972 1.21385,-0.34335 1.07994,0.66744 0.87857,1.13464 -0.48905,1.13464 -0.66762,0 -0.99377,-0.35608 -0.7248,-0.79129 z m 13.61758,-6.67521 c 0,-0.68076 0.78833,-1.93367 1.75184,-2.78424 l 1.75184,-1.5465 -1.7963,0.38719 c -1.15814,0.24963 -1.6883,0.0632 -1.49231,-0.5248 0.1672,-0.50159 0.97074,-0.91198 1.78564,-0.91198 1.9837,0 2.432,2.74062 0.66023,4.03617 -1.27041,0.92894 -1.27832,1.0247 -0.0847,1.0247 0.72418,0 1.3167,0.35037 1.3167,0.7786 0,0.42823 -0.87592,0.7786 -1.94649,0.7786 -1.25997,0 -1.94649,-0.43655 -1.94649,-1.23774 z m 5.45017,0.20177 c 0,-0.7712 0.3627,-2.0799 0.80599,-2.9082 0.63417,-1.18496 0.55118,-1.50601 -0.38929,-1.50601 -0.65741,0 -1.19529,-0.35036 -1.19529,-0.77859 0,-0.42823 0.87592,-0.7786 1.94649,-0.7786 2.35329,0 2.41353,0.69144 0.3893,4.46822 -0.94337,1.76013 -1.5572,2.35266 -1.5572,1.50318 z M 107.90277,141.503 c -0.25069,-0.40562 -0.12393,-0.9426 0.28169,-1.19329 0.40563,-0.25069 0.94261,-0.12392 1.1933,0.2817 0.25069,0.40562 0.12392,0.9426 -0.2817,1.19329 -0.40562,0.25069 -0.94261,0.12393 -1.19329,-0.2817 z m 38.92979,0 c -0.25069,-0.40562 -0.12392,-0.9426 0.2817,-1.19329 0.40562,-0.25069 0.94261,-0.12392 1.1933,0.2817 0.25068,0.40562 0.12392,0.9426 -0.2817,1.19329 -0.40563,0.25069 -0.94261,0.12393 -1.1933,-0.2817 z m -23.00968,-0.84509 c 0,-0.42823 0.57986,-0.7786 1.28857,-0.7786 1.16695,0 1.15804,-0.14423 -0.0944,-1.52819 -0.76065,-0.84051 -1.17631,-2.06679 -0.9237,-2.72509 0.51694,-1.34715 2.50058,-1.60378 3.23324,-0.41829 0.26688,0.43181 -0.31953,0.7863 -1.31659,0.79591 l -1.79779,0.0173 1.87337,1.44025 c 1.20299,0.92486 1.69932,1.89383 1.38698,2.70777 -0.52278,1.36235 -3.64965,1.78124 -3.64965,0.48893 z m 4.73739,0.3893 c -0.10463,-1.42602 1.55622,-6.61807 2.117,-6.61807 0.79939,0 2.65598,6.32894 2.02666,6.9087 -0.29133,0.26838 -0.68609,0.05 -0.87727,-0.48528 -0.19117,-0.53529 -0.81474,-0.97325 -1.38571,-0.97325 -0.57097,0 -1.21485,0.43796 -1.43084,0.97325 -0.216,0.53528 -0.41842,0.62287 -0.44984,0.19465 z m -3.8128,-14.45269 c 0.18734,-0.56205 0.80049,-1.17519 1.36254,-1.36254 0.58394,-0.19465 0.87592,0.0973 0.68127,0.68127 -0.18735,0.56205 -0.80049,1.17519 -1.36254,1.36254 -0.58395,0.19465 -0.87592,-0.0973 -0.68127,-0.68127 z m -3.19003,-7.27741 c -5.64192,-5.66119 -7.9338,-8.47806 -7.60183,-9.34315 0.26139,-0.68117 0.755,-1.23849 1.09691,-1.23849 1.30545,0 17.51079,16.99324 16.99744,17.82386 -1.07412,1.73797 -2.57599,0.70134 -10.49252,-7.24222 z m 24.78836,5.31167 c -0.83498,-1.00609 -0.81641,-1.34205 0.10643,-1.926 1.7024,-1.07723 2.28572,-0.87816 2.28572,0.78007 0,2.0627 -1.16724,2.62185 -2.39215,1.14593 z m -38.87343,-1.09998 c 0,-1.17268 0.40654,-1.59308 1.36254,-1.40897 0.7494,0.14432 1.36254,0.77836 1.36254,1.40897 0,0.63061 -0.61314,1.26465 -1.36254,1.40897 -0.956,0.18411 -1.36254,-0.23629 -1.36254,-1.40897 z m 22.29616,-1.38539 c -0.43592,-0.70534 12.64371,-14.23353 14.34345,-14.83536 1.98908,-0.70428 0.0824,1.71675 -6.56664,8.33816 -4.0148,3.99811 -7.51436,6.92184 -7.77681,6.4972 z m -22.29616,-16.52232 c 0,-0.42823 0.52555,-0.7786 1.16789,-0.7786 0.64234,0 1.1679,0.35037 1.1679,0.7786 0,0.42823 -0.52556,0.7786 -1.1679,0.7786 -0.64234,0 -1.16789,-0.35037 -1.16789,-0.7786 z m 38.92979,0 c 0,-0.42823 0.52556,-0.7786 1.1679,-0.7786 0.64234,0 1.16789,0.35037 1.16789,0.7786 0,0.42823 -0.52555,0.7786 -1.16789,0.7786 -0.64234,0 -1.1679,-0.35037 -1.1679,-0.7786 z M 110.26204,90.932266 c -0.3354,-0.542683 -0.39955,-1.196965 -0.14255,-1.45396 0.69681,-0.696813 1.45657,0.328024 1.08021,1.457098 -0.26373,0.79119 -0.44712,0.790576 -0.93766,-0.0031 z m 34.58293,-0.539748 c 0,-0.667614 0.35609,-0.993772 0.7913,-0.724796 0.43521,0.268976 0.58972,0.815206 0.34335,1.213844 -0.66745,1.079947 -1.13465,0.878577 -1.13465,-0.489048 z m -17.39539,-0.869166 c -1.06594,-1.065931 -0.45132,-2.588565 1.04488,-2.588565 0.85645,0 1.55719,0.307467 1.55719,0.683261 0,1.021011 -2.01265,2.494725 -2.60207,1.905304 z"
         id="path1217" />
    </g>
  </g>
</svg>
