<?xml version="1.0" encoding="UTF-8" standalone="no"?>
<svg
   cursor="default"
   version="1.1"
   viewBox="0 0 256 256"
   id="svg4"
   sodipodi:docname="digital_time_large.svg"
   inkscape:version="1.1.1 (3bf5ae0d25, 2021-09-20)"
   xmlns:inkscape="http://www.inkscape.org/namespaces/inkscape"
   xmlns:sodipodi="http://sodipodi.sourceforge.net/DTD/sodipodi-0.dtd"
   xmlns="http://www.w3.org/2000/svg"
   xmlns:svg="http://www.w3.org/2000/svg">
  <defs
     id="defs8" />
  <sodipodi:namedview
     id="namedview6"
     pagecolor="#505050"
     bordercolor="#eeeeee"
     borderopacity="1"
     inkscape:pageshadow="0"
     inkscape:pageopacity="0"
     inkscape:pagecheckerboard="0"
     showgrid="false"
     inkscape:zoom="2.8085938"
     inkscape:cx="100.76217"
     inkscape:cy="122.3032"
     inkscape:window-width="1920"
     inkscape:window-height="1057"
     inkscape:window-x="-8"
     inkscape:window-y="-8"
     inkscape:window-maximized="1"
     inkscape:current-layer="svg4" />
  <path
     style="fill:#ffffff;stroke-width:0.854392"
     d="m 112.81108,168.37481 c -1.59237,-0.67615 -4.4476,-5.32397 -4.4476,-7.23989 0,-1.1505 5.95946,-0.34093 6.6563,0.90425 0.45621,0.81518 1.5842,1.2425 2.81924,1.068 1.63317,-0.23077 2.11496,-0.87644 2.33065,-3.12349 0.26247,-2.73447 -0.95387,-5.28413 -2.52086,-5.28413 -0.41697,0 -1.41654,0.76895 -2.22124,1.70878 -0.8194,0.95699 -2.52041,1.70878 -3.86629,1.70878 h -2.40319 l 0.24349,-8.75752 0.24348,-8.75751 7.90313,-0.24566 7.90312,-0.24567 v 3.02244 3.02243 h -5.12634 c -4.55676,0 -5.12636,0.18987 -5.12636,1.70879 0,1.32063 0.5696,1.70878 2.50756,1.70878 4.38462,0 6.65203,1.38699 7.7611,4.74748 1.37698,4.1723 0.61676,10.3786 -1.53487,12.53023 -1.95482,1.95482 -8.11778,2.79931 -11.12132,1.52391 z m 22.21419,0 c -3.00963,-1.27796 -4.44759,-5.84232 -4.44759,-14.11744 0,-10.84476 2.15679,-14.08249 9.38097,-14.08249 2.59021,0 4.06326,0.55069 5.60972,2.09714 1.99341,1.99341 2.09574,2.59564 2.06872,12.17509 -0.0246,8.76084 -0.24924,10.34304 -1.71796,12.10632 -1.89947,2.28038 -7.57729,3.22969 -10.89386,1.82138 z m 7.51389,-13.60072 c 0,-5.8508 -0.30522,-7.80815 -1.3532,-8.6779 -0.9801,-0.81342 -1.74571,-0.87626 -2.77678,-0.22794 -2.13855,1.3447 -2.54473,15.60912 -0.4873,17.11353 1.0025,0.73305 1.91579,0.79296 3.02653,0.19852 1.36729,-0.73175 1.59075,-1.91263 1.59075,-8.40621 z m -29.90372,-25.65588 c 0,-3.84939 0.96182,-4.47537 2.37479,-1.54561 l 0.92712,1.92238 0.0578,-1.92238 c 0.10335,-3.43455 1.76661,-2.0268 1.76661,1.49518 0,3.93866 -0.36669,4.14087 -2.71134,1.49519 -1.25116,-1.41179 -1.5811,-1.53252 -1.24225,-0.45456 0.25376,0.80731 0.0937,1.69507 -0.35569,1.97281 -0.46858,0.28959 -0.81708,-0.97418 -0.81708,-2.96301 z m 6.90838,2.1738 c -0.58234,-0.70167 -0.93317,-2.16202 -0.77962,-3.24519 0.22066,-1.5566 0.81645,-1.96941 2.84235,-1.96941 2.35976,0 2.56318,0.23732 2.56318,2.99037 0,2.38119 -0.36335,3.04228 -1.78354,3.2452 -0.98096,0.14016 -2.26002,-0.31928 -2.84237,-1.02097 z m 3.19015,-2.43782 c -0.15016,-1.05731 -0.6575,-1.92239 -1.12742,-1.92239 -0.46991,0 -0.97724,0.86508 -1.1274,1.92239 -0.18786,1.32274 0.16381,1.92237 1.1274,1.92237 0.96361,0 1.31528,-0.59963 1.12742,-1.92237 z m 4.68896,2.66626 c -1.45228,-1.7499 -2.47139,-6.27997 -1.24182,-5.52006 0.53845,0.33279 0.979,1.15909 0.979,1.83623 0,1.92184 1.44449,1.44499 2.09384,-0.69122 0.32138,-1.05731 0.76883,-1.48352 0.99431,-0.94712 0.2255,0.53639 -0.0974,2.21896 -0.71775,3.73903 -0.91676,2.24673 -1.31104,2.54291 -2.10758,1.58314 z m 7.4267,-0.21206 c 0,-0.64734 0.57672,-1.65561 1.2816,-2.24061 0.70486,-0.58499 1.28159,-1.44215 1.28159,-1.9048 0,-0.46266 -0.57673,-0.61989 -1.28159,-0.34941 -0.70488,0.27049 -1.2816,0.11939 -1.2816,-0.33578 0,-0.45516 0.78103,-0.82757 1.73561,-0.82757 2.41567,0 3.19954,2.52835 1.23029,3.96831 -1.41246,1.03281 -1.42747,1.15803 -0.13883,1.15803 0.7947,0 1.44489,0.38449 1.44489,0.8544 0,0.46992 -0.96119,0.85439 -2.13598,0.85439 -1.24467,0 -2.13598,-0.49113 -2.13598,-1.17696 z m 6.84823,-0.13758 c 0.008,-0.92171 0.38013,-2.25254 0.82877,-2.95742 0.61747,-0.97014 0.35474,-1.4166 -1.08107,-1.83722 -1.56501,-0.45845 -1.41109,-0.57052 0.88001,-0.64079 1.52723,-0.0469 2.77677,0.0258 2.77677,0.16138 0,0.13559 -0.76895,1.75479 -1.70879,3.59822 -1.11461,2.18626 -1.70423,2.76897 -1.69569,1.67583 z m -30.7712,-16.2005 c 0,-2.62013 0.26445,-2.99036 2.13598,-2.99036 2.12847,0 2.13597,-0.0285 2.13597,-8.11673 0,-8.146943 -0.16756,-8.574788 -3.20397,-8.180505 -0.67956,0.08827 -1.06798,-0.962501 -1.06798,-2.889132 v -3.027836 h 5.12635 5.12635 v 11.107093 11.10711 h 2.13599 c 1.87152,0 2.13596,0.37023 2.13596,2.99036 v 2.99037 h -7.26233 -7.26232 z m 19.50058,0.1005 c -0.28976,-2.48201 0.36029,-3.75445 4.60569,-9.01526 3.51839,-4.35993 4.94306,-6.851377 4.94306,-8.644373 0,-2.117359 -0.34059,-2.519015 -2.13599,-2.519015 -1.56638,0 -2.13597,0.455669 -2.13597,1.708786 0,1.394519 -0.5696,1.708775 -3.09718,1.708775 -3.02547,0 -3.08456,-0.06293 -2.55303,-2.720712 1.07038,-5.351851 5.56531,-7.684061 11.21565,-5.819276 3.21824,1.062116 5.54166,4.395741 5.54166,7.951143 0,1.959275 -2.94653,7.074992 -5.6079,9.736362 -0.68113,0.68113 -1.6226,1.95626 -2.09213,2.83358 -0.77085,1.44036 -0.45942,1.62044 3.20956,1.85576 3.89683,0.24994 4.07423,0.37436 4.331,3.03739 l 0.26773,2.77677 h -8.07738 -8.07738 z"
     id="path907" />
</svg>
