<?xml version="1.0" encoding="UTF-8" standalone="no"?>
<svg
   cursor="default"
   version="1.1"
   viewBox="0 0 256 256"
   id="svg4"
   sodipodi:docname="digital_time_heartrate.svg"
   inkscape:version="1.1.1 (3bf5ae0d25, 2021-09-20)"
   xmlns:inkscape="http://www.inkscape.org/namespaces/inkscape"
   xmlns:sodipodi="http://sodipodi.sourceforge.net/DTD/sodipodi-0.dtd"
   xmlns="http://www.w3.org/2000/svg"
   xmlns:svg="http://www.w3.org/2000/svg">
  <defs
     id="defs8" />
  <sodipodi:namedview
     id="namedview6"
     pagecolor="#505050"
     bordercolor="#eeeeee"
     borderopacity="1"
     inkscape:pageshadow="0"
     inkscape:pageopacity="0"
     inkscape:pagecheckerboard="0"
     showgrid="false"
     inkscape:zoom="5.6171876"
     inkscape:cx="100.05007"
     inkscape:cy="124.17246"
     inkscape:window-width="1920"
     inkscape:window-height="1057"
     inkscape:window-x="-8"
     inkscape:window-y="-8"
     inkscape:window-maximized="1"
     inkscape:current-layer="svg4" />
  <path
     style="fill:#ffffff;stroke-width:0.768246"
     d="m 124.94473,161.28286 c -0.26115,-0.42254 -0.1087,-0.76824 0.33877,-0.76824 0.44747,0 0.81359,0.3457 0.81359,0.76824 0,0.42254 -0.15245,0.76825 -0.33879,0.76825 -0.18633,0 -0.55243,-0.34571 -0.81357,-0.76825 z m 4.22534,0 c 0,-0.42254 0.34571,-0.76824 0.76825,-0.76824 0.42254,0 0.76825,0.3457 0.76825,0.76824 0,0.42254 -0.34571,0.76825 -0.76825,0.76825 -0.42254,0 -0.76825,-0.34571 -0.76825,-0.76825 z m 5.02641,-0.71515 c -0.24309,-0.39335 -0.0907,-0.93231 0.33877,-1.19772 0.42944,-0.2654 0.78079,0.0564 0.78079,0.71517 0,1.34944 -0.46099,1.54813 -1.11956,0.48255 z m -13.85349,-0.83387 c 0.26541,-0.42942 0.80438,-0.58188 1.1977,-0.33878 1.0656,0.65857 0.86691,1.11956 -0.48254,1.11956 -0.65874,0 -0.98056,-0.35135 -0.71516,-0.78078 z m -4.23309,-1.95342 c 0,-0.65874 0.35135,-0.98056 0.78077,-0.71517 0.42943,0.2654 0.58189,0.80438 0.33879,1.19772 -0.65857,1.06558 -1.11956,0.86688 -1.11956,-0.48255 z m 22.66324,0.42946 c -0.26114,-0.42253 -0.10869,-0.76825 0.33879,-0.76825 0.44747,0 0.81358,0.34572 0.81358,0.76825 0,0.42254 -0.15245,0.76825 -0.33878,0.76825 -0.18633,0 -0.55244,-0.34571 -0.81359,-0.76825 z m -14.21254,-1.21639 c 0,-0.66902 0.41053,-1.07955 0.91229,-0.91229 1.4245,0.47484 1.66076,2.12868 0.30409,2.12868 -0.669,0 -1.21638,-0.54737 -1.21638,-1.21639 z m 5.0264,0.50123 c -0.2431,-0.39335 -0.0907,-0.93231 0.33879,-1.19771 0.9168,-0.56661 2.31727,0.15255 2.31727,1.18996 0,0.93481 -2.07935,0.94087 -2.65606,0.008 z m -9.63588,-1.9737 c 0,-0.6338 0.51857,-1.15237 1.15238,-1.15237 0.6338,0 1.15236,0.51857 1.15236,1.15237 0,0.6338 -0.51856,1.15237 -1.15236,1.15237 -0.63381,0 -1.15238,-0.51857 -1.15238,-1.15237 z m 14.24536,0.43721 c -0.56816,-0.91929 0.87704,-1.83014 1.90034,-1.1977 0.85918,0.53099 0.29513,1.91286 -0.78078,1.91286 -0.37266,0 -0.87647,-0.32182 -1.11956,-0.71516 z m -21.92781,-1.58958 c 0,-0.42253 0.3457,-0.76824 0.76825,-0.76824 0.42253,0 0.76824,0.34571 0.76824,0.76824 0,0.42254 -0.34571,0.76824 -0.76824,0.76824 -0.42255,0 -0.76825,-0.3457 -0.76825,-0.76824 z m 29.96158,-0.0453 c 0,-0.44748 0.34571,-0.59994 0.76824,-0.33879 0.42254,0.26114 0.76826,0.62725 0.76826,0.81358 0,0.18634 -0.34572,0.33879 -0.76826,0.33879 -0.42253,0 -0.76824,-0.36611 -0.76824,-0.81358 z m -25.73623,-0.72292 c -0.30665,-0.49616 -0.21184,-1.24782 0.2107,-1.67036 0.51217,-0.51216 0.95409,-0.46754 1.32579,0.13388 0.30664,0.49616 0.21184,1.24783 -0.2107,1.67037 -0.51216,0.51216 -0.9541,0.46754 -1.32579,-0.13389 z m 21.89501,0 c -0.90753,-0.56088 -0.94533,-0.89846 -0.18565,-1.65814 0.74191,-0.74191 1.15876,-0.74903 1.87578,-0.032 1.24636,1.24637 -0.14955,2.64228 -1.69013,1.69013 z m -28.42509,-3.07298 c 0,-0.42253 0.3457,-0.76824 0.76824,-0.76824 0.42253,0 0.76824,0.34571 0.76824,0.76824 0,0.42255 -0.34571,0.76824 -0.76824,0.76824 -0.42254,0 -0.76824,-0.34569 -0.76824,-0.76824 z m 34.57105,0 c 0,-0.42253 0.34571,-0.76824 0.76824,-0.76824 0.42254,0 0.76824,0.34571 0.76824,0.76824 0,0.42255 -0.3457,0.76824 -0.76824,0.76824 -0.42253,0 -0.76824,-0.34569 -0.76824,-0.76824 z M 124.5606,148.5217 c 0,-1.24401 0.53817,-3.03018 1.19593,-3.96927 1.14021,-1.62788 1.10654,-1.70743 -0.72291,-1.70743 -1.05535,0 -2.13249,-0.34571 -2.39363,-0.76825 -0.28759,-0.46531 0.79013,-0.76824 2.73312,-0.76824 3.51122,0 3.45112,-0.25661 1.30099,5.55544 -1.42317,3.84694 -2.1135,4.38842 -2.1135,1.65775 z m 5.47181,1.0243 c -1.25101,-1.25101 -1.05951,-6.34922 0.28025,-7.46113 1.27193,-1.05561 3.46689,-0.53759 3.46689,0.81821 0,0.481 -0.5075,0.67981 -1.12777,0.44179 -0.62028,-0.23802 -1.31681,-0.12688 -1.54788,0.247 -0.23107,0.37387 0.36286,0.79091 1.31982,0.92676 1.3487,0.19144 1.73995,0.74545 1.73995,2.46371 0,2.48401 -2.59844,4.09648 -4.13126,2.56366 z m 2.97889,-2.47564 c 0,-0.63381 -0.51857,-1.15238 -1.15237,-1.15238 -0.6338,0 -1.15236,0.51857 -1.15236,1.15238 0,0.6338 0.51856,1.15235 1.15236,1.15235 0.6338,0 1.15237,-0.51855 1.15237,-1.15235 z m 8.04827,2.65922 c -0.77437,-1.25296 0.94571,-2.80737 1.97148,-1.7816 0.55558,0.55558 0.45889,1.08457 -0.31572,1.72744 -0.82527,0.68492 -1.2572,0.69904 -1.65576,0.0542 z m -28.62329,-0.8573 c 0.39875,-1.19624 2.11747,-1.40573 2.1777,-0.26544 0.0223,0.42253 -0.53606,0.8877 -1.24084,1.03368 -0.80106,0.16593 -1.15226,-0.12206 -0.93686,-0.76824 z m -4.77708,-3.72255 c 0,-0.42253 0.34571,-0.76824 0.76824,-0.76824 0.42254,0 0.76825,0.34571 0.76825,0.76824 0,0.42254 -0.34571,0.76825 -0.76825,0.76825 -0.42253,0 -0.76824,-0.34571 -0.76824,-0.76825 z m 38.80414,-0.0125 c 0.26541,-0.42942 0.80438,-0.58188 1.19772,-0.33878 1.06558,0.65857 0.86689,1.11956 -0.48256,1.11956 -0.65874,0 -0.98055,-0.35135 -0.71516,-0.78078 z m -35.73116,-1.90808 c 0,-0.6338 0.51856,-1.15238 1.15237,-1.15238 0.6338,0 1.15237,0.51858 1.15237,1.15238 0,0.6338 -0.51857,1.15237 -1.15237,1.15237 -0.63381,0 -1.15237,-0.51857 -1.15237,-1.15237 z m 31.91499,0.4372 c -0.56814,-0.91927 0.87706,-1.83014 1.90035,-1.1977 0.85916,0.53099 0.29513,1.91287 -0.78077,1.91287 -0.37267,0 -0.87648,-0.32183 -1.11958,-0.71517 z m -34.60385,-3.12606 c -0.26114,-0.42254 -0.10869,-0.76824 0.33877,-0.76824 0.44748,0 0.8136,0.3457 0.8136,0.76824 0,0.42253 -0.15246,0.76825 -0.33879,0.76825 -0.18633,0 -0.55244,-0.34572 -0.81358,-0.76825 z m 38.41228,0 c -0.26115,-0.42254 0.0846,-0.76824 0.76825,-0.76824 0.68368,0 1.02938,0.3457 0.76823,0.76824 -0.26113,0.42253 -0.60684,0.76825 -0.76823,0.76825 -0.1614,0 -0.50711,-0.34572 -0.76825,-0.76825 z m -35.3393,-2.30474 c -0.62651,-1.01372 0.29209,-2.45229 1.20545,-1.8878 0.93313,0.5767 0.92706,2.65605 -0.008,2.65605 -0.39759,0 -0.93656,-0.34572 -1.1977,-0.76825 z m 31.4567,-0.0669 c -0.79169,-1.28099 0.9889,-2.74994 2.04869,-1.69014 0.8865,0.88649 0.33168,2.52533 -0.85494,2.52533 -0.37267,0 -0.90986,-0.37584 -1.19375,-0.83519 z m -18.36536,-6.46822 c 1.63078,-1.75789 3.00897,0.37169 4.23811,0.3786 1.32492,0.008 2.54186,-2.41054 3.95087,-0.77533 1.54445,1.79237 -2.79693,6.93188 -4.07024,6.93188 -0.30591,0 -5.2955,-5.26664 -4.11874,-6.53515 z m -16.54844,3.46217 c 0,-0.42253 0.34571,-0.76824 0.76824,-0.76824 0.42254,0 0.76825,0.34571 0.76825,0.76824 0,0.42255 -0.34571,0.76826 -0.76825,0.76826 -0.42253,0 -0.76824,-0.34571 -0.76824,-0.76826 z m 38.80414,-0.0125 c 0.26541,-0.42942 0.80438,-0.58188 1.19772,-0.33878 1.06558,0.65858 0.86689,1.11957 -0.48256,1.11957 -0.65874,0 -0.98055,-0.35136 -0.71516,-0.78079 z m -33.8139,-2.29763 c -0.26299,-0.42552 0.0773,-0.9868 0.75604,-1.24728 1.47092,-0.56444 2.29069,0.0576 1.58363,1.2016 -0.63793,1.0322 -1.71696,1.05326 -2.33967,0.0456 z m 28.39685,-0.0457 c -0.70705,-1.14404 0.11272,-1.76604 1.58364,-1.20159 0.6788,0.26047 1.01903,0.82176 0.75605,1.24728 -0.62273,1.00758 -1.70175,0.98652 -2.33969,-0.0456 z m -31.08235,-2.29897 c 0,-0.44747 0.3457,-0.59991 0.76824,-0.33877 0.42253,0.26114 0.76824,0.62725 0.76824,0.81358 0,0.18632 -0.34571,0.33878 -0.76824,0.33878 -0.42254,0 -0.76824,-0.36611 -0.76824,-0.81359 z m 34.57105,0.0453 c 0,-0.42252 0.34571,-0.76824 0.76824,-0.76824 0.42254,0 0.76824,0.34572 0.76824,0.76824 0,0.42254 -0.3457,0.76825 -0.76824,0.76825 -0.42253,0 -0.76824,-0.34571 -0.76824,-0.76825 z m -28.30641,-1.87271 c 0.146,-0.70478 0.61115,-1.26317 1.03369,-1.24085 1.14029,0.0602 0.93081,1.77897 -0.26544,2.17772 -0.64618,0.21538 -0.93417,-0.13581 -0.76825,-0.93687 z m 21.92036,0.60832 c -1.00186,-1.00187 -0.52355,-1.80859 1.07234,-1.80859 0.89405,0 1.46628,0.4027 1.29642,0.91229 -0.37422,1.12268 -1.657,1.60805 -2.36876,0.8963 z m -25.88027,-2.57684 c 0,-0.42253 0.3457,-0.76823 0.76825,-0.76823 0.42253,0 0.76824,0.3457 0.76824,0.76823 0,0.42254 -0.34571,0.76825 -0.76824,0.76825 -0.42255,0 -0.76825,-0.34571 -0.76825,-0.76825 z m 29.5852,-0.0125 c 0.2654,-0.42943 0.80436,-0.58188 1.19771,-0.33879 1.0656,0.65857 0.8669,1.11956 -0.48255,1.11956 -0.65874,0 -0.98056,-0.35134 -0.71516,-0.78078 z m -21.90275,-1.13984 c 0,-0.6338 0.51857,-1.15237 1.15238,-1.15237 0.6338,0 1.15236,0.51857 1.15236,1.15237 0,0.6338 -0.51856,1.15236 -1.15236,1.15236 -0.63381,0 -1.15238,-0.51856 -1.15238,-1.15236 z m 14.02049,0.19206 c 0.17606,-0.52817 0.78104,-0.9603 1.34443,-0.9603 0.56338,0 1.16838,0.43213 1.34442,0.9603 0.19043,0.57126 -0.35423,0.9603 -1.34442,0.9603 -0.99019,0 -1.53485,-0.38904 -1.34443,-0.9603 z m -9.41101,-1.72856 c 0,-0.6338 0.51857,-1.15236 1.15237,-1.15236 0.6338,0 1.15237,0.51856 1.15237,1.15236 0,0.6338 -0.51857,1.15237 -1.15237,1.15237 -0.6338,0 -1.15237,-0.51857 -1.15237,-1.15237 z m 5.0264,0.43722 c -0.56814,-0.91929 0.87705,-1.83015 1.90034,-1.19772 0.85917,0.53101 0.29514,1.91287 -0.78077,1.91287 -0.37267,0 -0.87648,-0.32182 -1.11957,-0.71515 z m -13.4771,-0.82133 c 0,-0.42255 0.36611,-0.76825 0.81358,-0.76825 0.44748,0 0.59993,0.3457 0.33879,0.76825 -0.26115,0.42253 -0.62726,0.76824 -0.81359,0.76824 -0.18633,0 -0.33878,-0.34571 -0.33878,-0.76824 z m 22.27913,0 c 0,-0.42255 0.34569,-0.76825 0.76824,-0.76825 0.42253,0 0.76824,0.3457 0.76824,0.76825 0,0.42253 -0.34571,0.76824 -0.76824,0.76824 -0.42255,0 -0.76824,-0.34571 -0.76824,-0.76824 z m -18.05378,-2.30475 c -0.26115,-0.42252 0.0846,-0.76823 0.76825,-0.76823 0.68367,0 1.02938,0.34571 0.76823,0.76823 -0.26113,0.42254 -0.60685,0.76825 -0.76823,0.76825 -0.1614,0 -0.50711,-0.34571 -0.76825,-0.76825 z m 13.4443,0 c 0,-0.42252 0.34571,-0.76823 0.76824,-0.76823 0.42254,0 0.76825,0.34571 0.76825,0.76823 0,0.42254 -0.34571,0.76825 -0.76825,0.76825 -0.42253,0 -0.76824,-0.34571 -0.76824,-0.76825 z m -8.82708,-1.54902 c 0.26539,-0.42943 0.80437,-0.58188 1.1977,-0.33879 1.0656,0.65858 0.86691,1.11958 -0.48254,1.11958 -0.65873,0 -0.98057,-0.35137 -0.71516,-0.78079 z m 4.60172,0.0125 c 0.26114,-0.42253 0.62726,-0.76824 0.81359,-0.76824 0.18633,0 0.33879,0.34571 0.33879,0.76824 0,0.42255 -0.36612,0.76826 -0.81359,0.76826 -0.44747,0 -0.59992,-0.34571 -0.33879,-0.76826 z m -18.05377,-16.13323 c 0,-2.90227 -0.28169,-3.841239 -1.15237,-3.841239 -1.90375,0 -1.29846,-2.287216 0.81827,-3.091996 1.08383,-0.412078 2.12097,-0.749231 2.30473,-0.749231 0.18376,0 0.33411,2.592828 0.33411,5.761846 0,4.60948 -0.23047,5.76185 -1.15237,5.76185 -0.87068,0 -1.15237,-0.93898 -1.15237,-3.84123 z m 3.84124,3.22311 c 0,-0.33996 1.20998,-1.93912 2.68885,-3.55367 2.84957,-3.11102 3.43899,-5.047169 1.53649,-5.047169 -0.63381,0 -1.15236,0.345711 -1.15236,0.768245 0,0.422535 -0.51857,0.768245 -1.15237,0.768245 -0.6338,0 -1.15237,-0.449423 -1.15237,-0.998718 0,-2.662741 4.48003,-3.849949 6.58496,-1.745016 1.71299,1.712992 1.30881,3.604943 -1.35795,6.356333 l -2.45544,2.53337 h 2.45544 c 1.3505,0 2.45545,0.34571 2.45545,0.76824 0,0.42255 -1.90141,0.76826 -4.22536,0.76826 -2.32394,0 -4.22534,-0.27816 -4.22534,-0.61812 z m 9.21894,-0.53425 c 0,-0.63381 0.51857,-1.15237 1.15237,-1.15237 0.6338,0 1.15237,0.51856 1.15237,1.15237 0,0.6338 -0.51857,1.15237 -1.15237,1.15237 -0.6338,0 -1.15237,-0.51857 -1.15237,-1.15237 z m 4.76312,0.23046 c -0.50704,-0.50703 -0.92189,-1.19846 -0.92189,-1.53648 0,-0.89144 2.62594,-0.75434 3.56649,0.18621 0.55558,0.55557 1.11022,0.42797 1.81123,-0.41669 1.44745,-1.74408 -0.0568,-3.12368 -2.17175,-1.99178 -2.39773,1.28322 -2.53924,1.10942 -2.28776,-2.80976 l 0.23415,-3.649164 3.26505,-0.236234 c 2.85984,-0.206916 3.26505,-0.04007 3.26505,1.34443 0,1.24413 -0.4907,1.580664 -2.30474,1.580664 -1.2676,0 -2.30474,0.334861 -2.30474,0.744135 0,0.409269 0.49156,0.555509 1.09234,0.324969 0.60079,-0.230547 1.76759,-0.0578 2.5929,0.3839 3.66646,1.96224 1.92306,6.99771 -2.42278,6.99771 -1.37041,0 -2.9065,-0.41487 -3.41355,-0.92191 z m 9.9872,0 c -1.36319,-1.36317 -1.16324,-7.945959 0.28534,-9.394543 1.54819,-1.548191 4.48803,-1.548191 6.03622,0 1.44858,1.448584 1.64852,8.031373 0.28535,9.394543 -0.50705,0.50704 -1.9936,0.92191 -3.30346,0.92191 -1.30985,0 -2.79642,-0.41487 -3.30345,-0.92191 z m 4.60453,-1.95902 c 0.50753,-2.61062 -0.30708,-6.338029 -1.38513,-6.338029 -0.7479,0 -1.06831,0.998467 -1.06831,3.329059 0,1.831 0.23047,3.55955 0.51216,3.84124 0.89161,0.89161 1.67111,0.55742 1.94128,-0.83227 z m -18.97072,-2.4968 c -0.56021,-0.90643 0.16645,-2.304739 1.1977,-2.304739 0.3976,0 0.72291,0.691419 0.72291,1.536489 0,1.6203 -1.11771,2.06739 -1.92061,0.76825 z"
     id="path1875"
     sodipodi:nodetypes="sssssssssssssssssssssssssssssssccsccsssssssssssssssssssssssssssssssssssssssssssssssssssssssssssssssssssssssssssssssssssssssssssssssscssccssssssssssssssssssssssssssssssssssssscssssssssssssssssssssssssssssssssssssssssssssssssssssssssssssssssssssssssssssssscssssssssssssscscssssscsssssssssssssssss" />
</svg>
