<svg cursor="default" viewBox="0 0 256 256" xmlns="http://www.w3.org/2000/svg"><g style="font-size:92.2457px;line-height:1.25;font-family:'Comic Sans MS';-inkscape-font-specification:'Comic Sans MS';letter-spacing:0;word-spacing:0;stroke-width:1.00000001;fill:#ffe680;stroke:#000;stroke-miterlimit:4;stroke-dasharray:none"><path d="M-78.44 35.527q-2.792 4.189-4.549 8.783l-3.423 9.864-12.116 32.745q-2.117 5.766-4.955 11.26-1.44 2.703-4.053 2.703-3.469 0-4.865-3.513-5.45-13.693-12.116-39.411l-3.558-12.387q-2.658-9.369-2.658-12.251 0-2.027 1.441-3.333 1.307-1.217 3.153-1.217 3.424 0 4.414 3.694l1.667 7.837 4.324 15.314q4.324 16.756 8.423 28.872l.27-.72 12.071-32.7 3.829-11.036q2.567-6.666 5.45-10.09 1.486-1.801 3.513-1.801 1.802 0 3.198 1.396 1.442 1.351 1.442 3.288 0 1.351-.901 2.703z" style="fill:#ffe680;stroke:#000;stroke-width:1.00000001;stroke-miterlimit:4;stroke-dasharray:none" transform="scale(-1.47915 .67607)" aria-label="V"/></g></svg>