<svg cursor="default" viewBox="0 0 256 256" xmlns:xlink="http://www.w3.org/1999/xlink" xmlns="http://www.w3.org/2000/svg"><defs><linearGradient id="innoGrad1"><stop style="stop-color:#ff8080;stop-opacity:1" offset="0"/><stop style="stop-color:#f55;stop-opacity:1" offset="1"/></linearGradient><linearGradient xlink:href="#innoGrad1" id="b" gradientUnits="userSpaceOnUse" x1="122.837" y1="9.613" x2="123.133" y2="223.235"/></defs><path style="fill:url(#b);stroke:none;stroke-width:.475472px;stroke-linecap:butt;stroke-linejoin:miter;stroke-opacity:1;fill-opacity:1" d="M225.981 17.189 86.272 8.162s-14.66 10.917-25.14 16.11C50.652 29.468 29.95 36.728 29.95 36.728s10.582 44.327 13.164 84.107c2.581 39.78-6.85 94.826-6.85 94.826l3.621 2.274 6.995-6.546 5.754 2.327 5.597-8.23 4.07 6.673 6.703-9.546 4.49 6.823 5.925-8.529 4.01 6.584 5.656-5.776 2.927 6.023 6.778-5.333 3.889 7.057 4.276-5.444 5.024 6.876 4.602-5.896 5.32 6.337 5.44-7.132 6.613 7.485 3.724-7.057 5.687 7.742 4.266-6.889 5.418 7.051 3.935-5.945 4.069 5.285 3.747-5.287 3.49 5.481 4.743-6.473 4.68 6.34 3.867-5.356 4.267 6.306 4.935-6.605 4.38 6.472 6.454-6.18 3.926 7.852 3.99-7.886 4.673 8.128 3.929-7.931 4.825 7.21 2.023-2.3s-4.626-51.774-6.342-102.908c-1.716-51.134 7.341-91.548 7.341-91.548z"/><path style="fill:#ff2a2a;stroke:none;stroke-width:.475472px;stroke-linecap:butt;stroke-linejoin:miter;stroke-opacity:1" d="m53.61 222.341-3.744-6.38-7.41 5.779-6.191-6.08 3.62 2.274 6.996-6.546 5.754 2.327 5.596-8.23 4.07 6.673 6.704-9.546 4.489 6.823 5.925-8.53 4.01 6.585 5.656-5.776 2.927 6.022 6.779-5.332 3.888 7.057c5.48-7.645 4.252-5.476 9.3 1.432l4.602-5.896 5.32 6.337 5.44-7.132 6.614 7.485 3.723-7.057 5.687 7.742 4.266-6.889 5.419 7.051 3.935-5.945 4.068 5.285 3.747-5.287 3.49 5.48 4.743-6.472 4.68 6.34 3.867-5.356 4.267 6.306 4.935-6.605 4.381 6.472 6.454-6.18 3.926 7.852 3.989-7.886 4.673 8.128 3.93-7.931 4.824 7.21 2.023-2.3-2.023 2.3-6.897-1.484-1.857 2.205-2.794 3.681-5.869-3.923-5.134 6.162-6.28-5.378-2.79 7.482-5.433-3.523-2.95 3.1-4.16-4.57-3.887 5.336-2.888-.788-1.865-3.372-4.238 6.715-3.798-6.125-4.615 5.883-4.87-6.193-5.412 5.505-3.99-5.78-5.134 4.843-4.04-4.837-4.14 5.012-4.32-6.075-4.673 6.066-2.172-4.903-4.695 5.193-4.058-5.543-1.22 3.566-3.643 2.712-4.87-5.252-4.975 4.112-5.072-4.78-4.193 4.31-6.179-5.39-5.569 4.847-4.991-4.761-5.113 4.58-4.717-5.339z"/><path style="fill:#000;stroke-width:.386497" d="M87.014 7.285c-.736-.033-1.755.556-3.479 2.014-6.865 5.806-13.312 9.926-22.535 14.4-7.585 3.68-14.416 6.416-24.64 9.871-8.065 2.726-7.72 2.423-6.676 5.864 1.016 3.348 4.764 20.026 6.14 27.324 4.86 25.767 6.964 48.343 6.969 74.787.004 23.973-1.772 43.506-5.744 63.191-1.417 7.024-1.675 10.279-.926 11.72.241.463.98 1.404 1.643 2.089a74.587 74.587 0 0 1 2.045 2.207c1.806 2.066 4.876 1.614 7.834-1.152l1.814-1.698.674 1.526c.718 1.628 2.148 2.97 3.531 3.318 1.346.338 3.516-.807 4.744-2.502 1.12-1.546 1.134-1.55 1.541-.656.682 1.496 2.737 3.605 3.764 3.863 1.413.355 3.152-.713 4.418-2.709l1.1-1.73.833 1.35c1.132 1.83 2.97 3.314 4.106 3.314 3.17-.6 4.048-2.604 5.766-5.049 5.276 5.06 5.428 8.409 10.359 1.574.043.002.48.705.97 1.565.946 1.655 2.846 3.066 4.131 3.066 1.253 0 3.05-1.306 3.86-2.832.484-.913.781-1.198 1.094-1.43 1.31.186 1.643 4.122 4.787 4.342 4.75-.465 4.65-4.566 4.998-4.613.32.008 2.472 4.23 4.097 4.25 1.73.02 3.21-4.417 4.194-4.455 1.113-.044 1.746 3.496 2.5 3.793.753.296 1.578-.045 2.207-.653.717-.693 1.525-1.681 1.84-2.15.565-.843.586-.83 1.927 1.152 2.24 3.31 4.594 3.384 6.38.201l.79-1.41.909 1.325c1.16 1.83 2.81 2.169 4.363 1.978 1.547-.43 2.4-3.477 3.744-3.414 1.343.063 1.678 3.67 4.137 3.742 2.458.073 4.083-3.85 5.298-3.681 1.216.167 2.61 4.56 4.983 4.369 2.373-.192 4.469-3.604 4.469-3.604l.484 1.168c.737 1.778 2.607 3.192 3.826 2.89 1.267-.312 2.443-4.632 4.049-4.706 1.606-.075 2.628 3.396 4.636 2.97 2.008-.427 1.286-4.021 3.777-4.131l.096-2.674c-2.59.044-3.306 4.422-4.715 4.66-1.506.255-1.57-3.056-3.97-3.046-2.402.011-2.654 7.61-5.396 4.594-.272-.328-.862-1.662-1.31-2.965-.45-1.304-1.027-2.44-1.284-2.525-.269-.09-.891.8-1.463 2.091-1.128 2.551-2.323 3.994-3.306 3.994-.954 0-2.538-2.027-3.334-4.269-.414-1.165-.912-1.914-1.272-1.914-.326 0-1.138.913-1.807 2.03-2.66 4.44-4.096 4.725-5.724 1.138-1.877-4.136-2.133-4.286-3.31-1.938-1.031 2.055-2.619 3.793-3.464 3.793-.755 0-1.846-1.14-3.236-3.38-.56-.904-1.189-1.643-1.396-1.643-.208 0-.88 1.103-1.49 2.451-.612 1.348-1.377 2.552-1.7 2.676-.78.3-2.267-1.328-3.539-3.871-.558-1.116-1.262-2.03-1.564-2.03-.303 0-1.117 1.062-1.809 2.36-.692 1.298-1.67 2.63-2.174 2.96-.338.147-1.91-4.121-3.361-3.946-1.168.14-3.153 4.81-4.154 4.367-1.406-.623-3.444-4.928-4.069-4.9-.45.035-2.308 5.371-4.615 5.56-2.502.205-3.437-3.758-3.961-4.781-1.073-2.12-1.826-1.996-2.754.453-.737 1.944-1.625 3.156-2.752 3.76-1.02.546-2.987-1.39-4.254-4.182-1.18-2.604-2.078-3.094-2.486-1.36-.528 2.244-1.805 4.716-2.559 4.956-1.132.359-2.524-.844-4.666-4.032-1.02-1.518-2.01-2.76-2.2-2.76-.191 0-.994 1.232-1.786 2.739-2.682 5.104-4.578 4.919-7.457-.735-.467-.917-1.058-1.6-1.313-1.52-.254.082-.904.957-1.445 1.944-1.245 2.276-2.627 3.756-3.51 3.756-.754 0-2.616-2.48-3.562-4.744-.798-1.91-1.598-1.818-2.531.291-2.142 4.842-5.65 4.826-7.01-.031-.273-.974-.744-1.866-1.047-1.983-.34-.13-1.22.552-2.299 1.786-1.954 2.233-3.412 3.134-5.068 3.134-1.288 0-2.981-1.522-2.053-1.845 1.017-.354 3.483-2.85 4.848-4.905l1.367-2.058 1.506 1.506c1.646 1.646 2.828 1.888 4.64.95 1.085-.56 3.234-2.761 4.303-4.405l.58-.895 1.238 1.758c.73 1.034 1.66 1.86 2.262 2.012 2.12.531 4.672-1.637 6.803-5.782l.766-1.49.787 1.59c.823 1.664 2.5 3.129 3.584 3.129 1.365 0 3.023-1.3 4.427-3.473l1.47-2.271 1.198 1.7c1.346 1.91 2.627 2.428 4.3 1.735.616-.255 1.744-1.354 2.505-2.441.644-.92 1.1-1.424 1.287-1.436.063-.004.096.048.096.156 0 1.385 1.287 3.397 2.56 4.004 1.708.815 3.763.21 5.711-1.683.792-.769 1.485-1.336 1.541-1.26.057.076.333.71.612 1.41.859 2.157 2.447 3.559 4.033 3.559 1.962-.143 2.595-1.469 3.781-2.705.215-.172.595.218 1.236 1.312 1.047 1.786 2.637 2.94 4.053 2.94.975 0 3.001-1.698 3.746-3.139.7-1.353 1.074-1.398 1.621-.197.62 1.199 1.905 2.443 2.934 3.154 1.093.766 2.153.71 3.51-.184.623-.41 1.672-1.602 2.332-2.648l1.199-1.902 1.146 1.728c1.27 1.914 3.78 3.961 4.86 3.961 1.449 0 2.681-.945 3.576-2.74.884-1.773.937-1.813 1.328-.955.651 1.428 2.687 3.56 3.871 4.05 1.595.66 2.995-.025 4.24-2.078.579-.952 1.167-1.738 1.31-1.744.141-.007.645.615 1.118 1.381.977 1.58 2.832 2.855 4.156 2.858 1.31.002 2.257-.618 3.305-2.16l.93-1.368.806 1.133c1.18 1.655 2.77 2.223 4.184 1.492.614-.317 1.349-1.012 1.633-1.543l.517-.965 1.438 1.512c.791.832 1.775 1.514 2.185 1.514.818 0 2.383-.932 3.143-1.871.108-.133.189-.13.254-.018l1.842-2.049.332.721 1.369 1.6c1.13 1.32 1.629 1.617 2.725 1.617 1.404 0 2.969-1.258 3.449-2.77.208-.657.45-.52 1.967 1.108.94 1.243 2.138 2.632 3.345 2.554 1.208-.077 2.098-1.993 3.37-3.716l.67-1.084 1.02 1.742c.563.958 1.407 2.011 1.876 2.34 1.894 1.326 4.902.28 6.562-2.284.93-1.436 1.461-1.734 1.461-.82 0 .303.62 1.36 1.375 2.35l1.373 1.8-.656 1.975c-.754 2.269-2.061 3.762-3.297 3.762-.537 0-1.79-.936-3.367-2.514-1.382-1.382-2.726-2.512-2.986-2.512-.277 0-.646.969-.885 2.325-.878 4.985-2.043 5.68-4.84 2.882-.618-.617-1.184-1.634-2.16-1.605-.976.029-1.936 3.556-3.203 3.326-1.268-.23-2.555-4.009-4.003-4.07l-.096 2.675c1.47.088 1.85 3.112 3.688 3.404 1.839.292 2.632-3.08 3.901-3.128 1.269-.047 3.74 3.024 4.863 2.828 1.124-.196 2.573-1.995 2.977-3.572l.482-1.881 2.08 1.693c1.661 1.353 2.381 1.694 3.58 1.694 1.933 0 3.6-1.366 4.48-3.672l.655-1.717 1.578 1.35c.868.742 2.223 1.544 3.014 1.781 2.073.621 3.742-.423 4.762-2.979.42-1.052.812-1.983.87-2.07.06-.086.771.14 1.58.506.81.365 1.985.676 2.612.69 1.595.035 4.277-.752 4.988-1.463.536-.536.713-1.041 1.16-3.327.141-.718-.998-15.48-2.857-37.025-2.466-28.585-2.951-36.112-3.558-55.166-.947-29.68 1.043-60.794 5.886-92.09.642-4.145 1.242-7.796 1.332-8.115.09-.319.029-.794-.136-1.057-.218-.347-14.593-1.379-52.65-3.777-28.794-1.815-59.918-3.797-69.165-4.404-9.247-.608-17.28-1.125-17.853-1.15zm.248 1.885 1.941.049c1.068.027 7.944.448 15.277.935 7.334.488 37.422 2.4 66.864 4.25 29.441 1.85 53.553 3.385 53.582 3.412.028.028-.188 1.53-.48 3.336-5.046 31.12-6.996 57.497-6.6 89.282.273 21.916.726 29.77 3.752 64.93 2.994 34.804 3.07 36.45 1.69 36.98-.877.336-2.278-1.219-3.608-4.004-.658-1.377-1.39-2.438-1.625-2.36-.236.08-.823 1.232-1.305 2.563-1.936 5.347-4.15 5.182-5.781-.432-.882-3.032-1.742-3.01-2.895.07-.91 2.434-2.367 4.164-3.115 3.702-.516-.319-2.695-4.767-2.695-5.502-.001-1.147-1.519-.405-2.461 1.203-.97 1.654-3.417 4.111-4.094 4.111-.888 0-2.754-2.166-3.428-3.978-1.05-2.823-1.875-2.838-3.32-.057-.62 1.194-1.542 2.44-2.047 2.772-.868.569-.981.54-2.088-.518-.643-.615-1.537-1.77-1.986-2.566-1.156-2.053-1.86-1.854-3.063.869-.563 1.275-1.305 2.426-1.65 2.558-.912.35-1.995-.806-3.367-3.593-.662-1.344-1.437-2.444-1.723-2.444-.286 0-.977.914-1.535 2.03-2.24 4.475-3.574 4.856-5.107 1.46-.616-1.363-1.289-2.31-1.645-2.318-.353-.007-.991.818-1.545 1.996-1.182 2.517-1.963 3.05-3.037 2.078-.432-.39-1.154-1.47-1.604-2.398-.967-1.998-2.102-2.278-2.468-.61-.325 1.48-1.558 3.426-2.483 3.92-1.095.587-2.878-1.024-4.338-3.916-.753-1.493-1.36-2.249-1.74-2.17-.32.067-.995 1.137-1.498 2.378-.998 2.46-1.951 3.734-2.795 3.734-.802 0-2.616-2.144-3.98-4.703-.661-1.24-1.344-2.254-1.518-2.254-.526 0-1.024.874-1.537 2.705-.682 2.433-1.436 3.478-2.51 3.478-1.054 0-3.08-2.077-4.666-4.783-1.385-2.364-2.144-2.312-3.324.225-2.496 5.366-4.299 5.49-7.207.5-.655-1.125-1.403-1.932-1.787-1.932-.405 0-1.147.883-1.924 2.285-.696 1.257-1.628 2.526-2.072 2.82-.717.477-.918.439-1.805-.35-.549-.49-1.568-1.92-2.266-3.179-.697-1.259-1.435-2.304-1.64-2.32-.205-.016-.9.91-1.545 2.059-.645 1.148-1.472 2.273-1.834 2.5-1.022.638-2.52-1.048-3.357-3.778-.393-1.277-.914-2.389-1.159-2.47-.245-.082-1.465.91-2.713 2.205-1.825 1.895-2.504 2.353-3.476 2.353-.948 0-1.372-.27-1.973-1.256-1.002-1.642-1.005-4.751-.01-15.255 2.051-21.642 2.83-40.051 2.825-66.778-.007-34.8-1.77-67.783-5.639-105.418zm-1.71 1.244c.007.273.174 1.74.372 3.262 1.073 8.255 3.415 36.234 4.426 52.888 1.325 21.832 1.552 30.082 1.556 56.237.005 30.843-.61 45.452-2.898 68.722-.707 7.19-.874 8.051-1.969 10.243-2.637 5.278-4.46 5.404-6.357.437-.926-2.424-1.702-2.252-3.088.686-1.325 2.806-3.059 4.941-4.014 4.941-.94 0-1.761-1.016-2.898-3.588-.538-1.215-1.225-2.209-1.528-2.209-.303 0-1.275 1.347-2.16 2.994-1.768 3.293-3.653 5.508-4.69 5.508-.863 0-2.051-1.523-2.88-3.693-.36-.945-.88-1.717-1.154-1.717-.275 0-1.055.97-1.735 2.158-1.82 3.183-3.856 5.186-5.271 5.186-1.252 0-1.986-.642-2.983-2.61-.819-1.617-1.844-1.617-2.623 0-1.123 2.334-4.057 5.932-5.344 6.555-1.67.809-2.207.553-2.767-1.316-.409-1.365-.276-2.504 1.156-9.912 4.029-20.842 5.438-35.089 5.756-58.229.215-15.631-.107-25.642-1.26-39.23-1.715-20.214-5.447-42.91-10.234-62.243-2.065-8.336-2.175-8.955-1.436-8.027.266.334 1.462 1.221 2.66 1.973 2.613 1.64 6.02 4.468 11.737 9.746 6.12 5.649 11.775 10.308 12.3 10.133.986-.329.349-1.426-1.865-3.207-1.275-1.027-4.841-4.064-7.923-6.75-7.23-6.3-11.288-9.56-13.97-11.213l-2.154-1.328 6.805-2.362C55.5 28.77 65.643 24.091 74.912 17.938c1.913-1.27 5.088-3.595 7.055-5.165 1.966-1.57 3.58-2.631 3.586-2.359zm-.786 3.15c-.361-.206-.931.964-3.323 6.428-5.883 13.443-13.91 28.337-18.627 34.565-1.115 1.473-1.966 2.864-1.89 3.091.697 2.096 4.687-3.256 10.496-14.08 4.685-8.729 13.917-29.15 13.49-29.84a.466.466 0 0 0-.146-.164zM58.824 64.826c-.193 0-.26.391-.148.87.468 1.996 2.939 20.46 3.84 28.697 2.44 22.315 3.08 35.134 2.808 56.209-.117 9.049-.402 18.453-.635 20.898-.731 7.705-1.97 17.01-2.986 22.416-1.202 6.404-1.3 7.924-.512 7.924.716 0 1.218-1.928 2.506-9.662 2.275-13.654 3.065-24.843 3.047-43.096-.018-18.067-.775-30.863-3.058-51.598-.923-8.374-3.832-29.892-4.297-31.789-.118-.478-.371-.869-.565-.869zm150.582 145.3c.185-.122.277.04.395.411.365 1.151 2.478 3.477 3.158 3.477.678 0 .362 1.368-.559 2.416-.834.95-1.932.842-3.666-.36-1.715-1.188-2.44-2.26-1.797-2.658.234-.144.916-1.036 1.514-1.98.491-.775.77-1.182.955-1.305zm8.977.07c.195.1.46.49.963 1.26.573.875.868 1.653.656 1.728-.602.21-2.666-.76-2.65-1.246.008-.24.224-.806.482-1.256.227-.396.353-.587.549-.487z"/></svg>