<svg cursor="default" viewBox="0 0 256 256" xmlns:xlink="http://www.w3.org/1999/xlink" xmlns="http://www.w3.org/2000/svg"><defs><linearGradient id="innoGrad2"><stop style="stop-color:#ffb380;stop-opacity:1" offset="0"/><stop style="stop-color:#f95;stop-opacity:1" offset="1"/></linearGradient><linearGradient xlink:href="#innoGrad2" id="b" x1="118.913" y1="9.502" x2="114.723" y2="248.805" gradientUnits="userSpaceOnUse"/></defs><path style="fill:url(#b);fill-opacity:1;stroke:none;stroke-width:1px;stroke-linecap:butt;stroke-linejoin:miter;stroke-opacity:1" d="m76.13 222.83-.41 18.348 6.75 5.92 60.173.446 3.916-2.27 30.71-.579 6.991-6.051 1.306-26.513-4.072-4.621-3.622 4.465-4.464-5.544-2.237 24.913-22.171 1.1-.227-7.443-5.654-4.73-5.7 3.739-.081 6.898-18.64-.588-.038-21.384-1.735-3.69-4.984 5.35-5.066-5.46-1.327 2.757-.832 28.068-15.837-1.235-.89-11.883-4.536-.7-3.831-5.36z"/><path style="fill:#000;stroke-width:.386497" d="M107.006 203.414c-.205-.016-.9.91-1.545 2.059-1.302 1.958-1.37 17.453-1.367 24.59v4.92l-6.668-.19c-3.667-.104-6.948-.31-7.291-.457-.343-.147-.807-.667-1.03-1.156-1.43-7.661 1.155-11.888-2.492-10.828-1.132.359-2.524-.844-4.666-4.032-1.02-1.518-2.01-2.76-2.2-2.76-.191 0-.994 1.232-1.786 2.739-1.409 2.337-2.693 3.086-2.856 5.377l.004 8.406c.004 8.041.045 8.493.926 10.385 1.118 2.4 2.923 3.85 5.985 4.803 2.074.645 4.873.759 28.517 1.166 14.419.248 27.297.352 28.62.23 2.586-.239 5.86-1.455 6.845-2.543.562-.621 1.667-.658 14.668-.492 13.482.172 14.17.146 16.748-.637 3.37-1.024 5.836-3.084 7.039-5.88.733-1.704.915-3.177 1.283-10.428l.43-8.446c-.12-3.8.973-8.12-1.344-10.326-.643-.615-1.537-1.77-1.986-2.566-1.156-2.053-1.86-1.854-3.063.869-.563 1.275-1.305 2.426-1.65 2.558-.912.35-1.995-.806-3.367-3.593-.662-1.344-1.437-2.444-1.723-2.444-1.474 2.97-1.325 8.085-1.338 10.457-.243 4.196.007 9.909-.94 14.287-1.017 1.968-1.581 2.07-10.818 1.971-4.676-.05-8.85-.176-9.275-.28-.712-.172-.763-.452-.646-3.526.027-.713.057-1.275.1-1.756-.56-5.618-2.024 1.195-4.86-4.844-1.877-4.136-2.133-4.286-3.31-1.938-1.031 2.055-2.635 3.416-3.464 3.793-1.742.62-1.935.855-1.927 4.252v3.479h-7.163c-7.98 0-9.547-.332-10.246-2.17-.219-.576-.291-1.765-.16-2.643-.704-7.111 2.547-20.134-2.277-21.662-.405 0-1.147.883-1.924 2.285-.696 1.257-1.628 2.526-2.072 2.82-.718.477-.918.439-1.805-.35-.549-.49-1.568-1.92-2.266-3.179-.697-1.259-1.435-2.304-1.64-2.32zm-.031 3.57c.229.013.59.46 1.132 1.385 1.047 1.786 2.637 2.94 4.053 2.94.975 0 3.001-1.698 3.746-3.14.7-1.352 1.074-1.397 1.621-.196.296.649.306 3.375.032 9.37-.214 4.652-.312 9.29-.22 10.307.18 1.952 1.276 3.551 2.852 4.16 1.044.404 46.524 1.685 48.256 1.36.7-.131 1.728-.597 2.285-1.035 1.978-1.556 2.184-2.496 2.555-11.678.19-4.713.353-9.165.361-9.894l.014-1.327 1.383 1.616c1.13 1.32 1.629 1.617 2.725 1.617 1.404 0 2.969-1.258 3.449-2.77.208-.657.45-.52 1.967 1.108l1.73 1.853-.603 11.21c-.332 6.164-.705 11.808-.829 12.542-.535 3.19-2.552 5.506-5.982 6.865-1.55.615-3.129.668-16.594.555-8.184-.069-22.098-.257-30.92-.42-13.777-.254-16.312-.39-17.972-.973-2.601-.91-4.281-2.245-5.285-4.195-.798-1.55-.833-2.061-.768-11.67.037-5.527.175-12.047.307-14.492.131-2.445.364-4.68.517-4.967.049-.09.111-.135.188-.13zm-27.059 11.668c.084 0 .501.565.93 1.256 1.58 2.549 4.864 4.962 5.888 4.328.207-.127.354 1.65.354 4.268 0 6.88.934 7.928 7.078 7.928 1.781 0 4.83.112 6.775.25 2.974.21 3.54.356 3.54.908 0 .89 1.876 3.61 3.21 4.654 2.553 1.997 4.558 2.404 13.409 2.72 4.57.165 11.613.318 15.652.343 6.459.039 7.227.109 6.37.576-2.11 1.148-5.102 1.26-25.202.943-33.47-.527-33.509-.528-35.664-1.287-2.12-.746-3.778-2.1-4.77-3.89-.556-1.005-.625-2.35-.529-10.04.1-7.999.182-8.957.824-9.662.393-.43.999-1.348 1.348-2.039.35-.69.704-1.256.787-1.256zm63.17 2.264.785 1.537c.952 1.866 2.507 3.156 3.805 3.156.872 0 .94.113.72 1.207-.132.665-.242 1.882-.242 2.705v1.499h-10.048l.006-2.223c.007-3.054.257-3.745 1.529-4.225.603-.228 1.625-1.143 2.271-2.035z"/></svg>