<svg cursor="default" viewBox="0 0 256 256" xmlns="http://www.w3.org/2000/svg"><g style="font-size:85.9142px;line-height:1.25;-inkscape-font-specification:sans-serif;letter-spacing:0;word-spacing:0;stroke-width:1;fill:#ffe680;stroke:#000;stroke-miterlimit:4;stroke-dasharray:none"><path d="M170.792-165.025q0 31.588-17.786 41.53-1.72.965-2.979.965-1.426 0-2.517-1.049-1.09-1.006-1.09-2.39 0-1.889 2.432-3.818 1.93-1.51 3.902-3.02 9.648-9.943 9.648-31.254 0-8.264-2.307-16.822-2.685-9.816-7.3-15.102-1.929-1.93-3.817-3.86-2.6-2.81-2.6-4.278 0-1.51 1.09-2.685 1.133-1.217 2.643-1.217.965 0 2.685 1.175 8.306 5.831 13.424 18.794 4.572 11.662 4.572 23.03z" style="font-family:'Comic Sans MS';-inkscape-font-specification:'Comic Sans MS';fill:#ffe680;stroke:#000;stroke-width:1;stroke-miterlimit:4;stroke-dasharray:none" transform="rotate(-87 332.166 .389)" aria-label=")"/></g></svg>