<?xml version="1.0" encoding="UTF-8" standalone="no"?>
<svg
   version="1.1"
   viewBox="0 0 64 64"
   id="svg71"
   sodipodi:docname="vial.svg"
   inkscape:version="1.1.1 (3bf5ae0d25, 2021-09-20)"
   xmlns:inkscape="http://www.inkscape.org/namespaces/inkscape"
   xmlns:sodipodi="http://sodipodi.sourceforge.net/DTD/sodipodi-0.dtd"
   xmlns="http://www.w3.org/2000/svg"
   xmlns:svg="http://www.w3.org/2000/svg">
  <sodipodi:namedview
     id="namedview73"
     pagecolor="#505050"
     bordercolor="#eeeeee"
     borderopacity="1"
     inkscape:pageshadow="0"
     inkscape:pageopacity="0"
     inkscape:pagecheckerboard="0"
     showgrid="false"
     inkscape:zoom="31.775611"
     inkscape:cx="25.349631"
     inkscape:cy="33.122888"
     inkscape:window-width="1920"
     inkscape:window-height="1057"
     inkscape:window-x="1912"
     inkscape:window-y="-8"
     inkscape:window-maximized="1"
     inkscape:current-layer="svg71" />
  <defs
     id="defs7">
    <radialGradient
       id="radialGradient1110"
       cx="13.153"
       cy="40.542"
       r="10"
       gradientTransform="matrix(1.3121 0 1.1253e-8 2.0742 8.7614 -41.025)"
       gradientUnits="userSpaceOnUse">
      <stop
         stop-color="#ffdd55"
         offset="0"
         id="stop2" />
      <stop
         stop-color="#fff6d5"
         stop-opacity="0"
         offset="1"
         id="stop4" />
    </radialGradient>
  </defs>
  <g
     id="g21">
    <g
       stroke="#000000"
       stroke-linecap="round"
       stroke-linejoin="round"
       stroke-width="0.25"
       id="g19"
       transform="matrix(1.39755,0,0,1.39755,-11.573167,-11.348686)">
      <path
         d="m 33,50.259 c 0.19906,0.90224 1.6626,1.5148 2.936,1.241 1.7943,-0.38586 2.1884,-1.7074 2.0418,-2.3782 l -5.4316,-24.845 c -1.9266,-0.1884 -4.0049,0.0892 -5.3013,-0.10155 z"
         fill="#a1f6fb"
         id="path13"
         style="fill:#ffb380" />
      <path
         d="m 26.116,18.959 c 0.96235,-1.9202 3.0026,-1.5015 5.0347,-1.1003 -0.15944,0.26926 -4.0341,1.2063 -5.0347,1.1003 z"
         fill="#a05a2c"
         id="path15" />
      <path
         d="m 23.872,11.325 c 0.09146,0.46152 1.5038,5.0874 2.2439,7.6336 0.866,-0.51944 4.4316,-1.07 5.0347,-1.1003 -0.33667,-2.6079 -0.88463,-7.4166 -1.01,-7.8237 -0.11358,-0.36885 -6.3478,0.89098 -6.2686,1.2905 z"
         fill="#e9c6af"
         id="path17" />
    </g>
  </g>
  <g
     transform="matrix(1.366695,-0.29204606,0.29204606,1.366695,-118.92352,17.34992)"
     fill="#c3aea0"
     id="g37">
    <path
       d="m 102.77,13.718 c 0,0 -0.21804,-0.27506 -0.21804,-0.27506 -0.11856,0.09398 -0.26413,0.65258 -0.3857,0.74714 0.12157,-0.09456 0.70086,-0.10116 0.82178,-0.19702 0,0 -0.21804,-0.27506 -0.21804,-0.27506 z"
       id="path23" />
    <path
       d="m 102.11,17.613 -0.21258,0.32421 c 0.14568,0.09552 0.7938,0.05216 0.94033,0.14642 -0.14653,-0.09426 -0.37215,-0.70106 -0.51517,-0.79483 L 102.11,17.61301 Z"
       id="path25" />
    <path
       d="m 105.64,13.255 c 0,0 0.38416,-0.05215 0.38416,-0.05215 -0.0234,-0.17264 -0.48132,-0.63342 -0.50632,-0.80586 0.025,0.17243 -0.285,0.74074 -0.262,0.91017 0,0 0.38416,-0.05215 0.38416,-0.05215 z"
       id="path27" />
    <path
       d="m 101.23,14.861 c 0,0 -0.21259,0.3242 -0.21259,0.3242 0.14568,0.09552 0.7938,0.05216 0.94033,0.14642 -0.14653,-0.09426 -0.37214,-0.70106 -0.51515,-0.79483 0,0 -0.21259,0.3242 -0.21259,0.3242 z"
       id="path29" />
    <path
       d="m 103.87,15.58 c 0,0 -0.21259,0.3242 -0.21259,0.3242 0.14568,0.09552 0.7938,0.05216 0.94033,0.14642 -0.14653,-0.09426 -0.37214,-0.70106 -0.51515,-0.79483 0,0 -0.21259,0.3242 -0.21259,0.3242 z"
       id="path31" />
    <path
       d="m 105.04,16.73 -0.21258,0.32421 c 0.14568,0.09552 0.7938,0.05216 0.94033,0.14642 -0.14653,-0.09426 -0.37215,-0.70106 -0.51517,-0.79483 L 105.04,16.73001 Z"
       id="path33" />
    <path
       d="m 103.48,18.905 c 0,0 0.33966,-0.08848 0.33966,-0.08848 -0.0381,-0.14639 -0.49044,-0.50504 -0.52789,-0.65443 0.0374,0.14939 -0.19034,0.68206 -0.15143,0.8314 0,0 0.33966,-0.08849 0.33966,-0.08849 z"
       id="path35" />
  </g>
  <g
     transform="matrix(1.366695,-0.29204606,0.29204606,1.366695,-118.92352,17.34992)"
     fill="#90705c"
     id="g57">
    <path
       d="m 101.27,12.392 c 0,0 -0.34044,0.08545 -0.34044,0.08545 0.0368,0.14672 0.48592,0.5094 0.52203,0.65911 -0.0361,-0.14972 0.19642,-0.68033 0.15885,-0.83002 0,0 -0.34044,0.08545 -0.34044,0.08545 z"
       id="path39" />
    <path
       d="m 102.79,15.392 0.37158,0.1106 c 0.0451,-0.15165 -0.19724,-0.71177 -0.15396,-0.86308 -0.0433,0.15131 -0.54517,0.49398 -0.5892,0.64189 l 0.37158,0.1106 z"
       id="path41" />
    <path
       d="m 104.58,14.052 0.21547,-0.3223 c -0.14482,-0.09681 -0.7933,-0.05924 -0.93899,-0.1548 0.14569,0.09557 0.36588,0.70435 0.50805,0.7994 z"
       id="path43" />
    <path
       d="m 105.43,19.244 c 0,0 0.33966,-0.08848 0.33966,-0.08848 -0.0381,-0.14639 -0.49044,-0.50504 -0.52789,-0.65443 0.0375,0.14939 -0.19034,0.68206 -0.15143,0.8314 0,0 0.33966,-0.08849 0.33966,-0.08849 z"
       id="path45" />
    <path
       d="m 103.92,17.931 c 0,0 0.2205,0.2731 0.2205,0.2731 0.1177,-0.09503 0.25828,-0.6549 0.37899,-0.75054 -0.12071,0.09564 -0.69992,0.10741 -0.81999,0.20435 0,0 0.2205,0.2731 0.2205,0.2731 z"
       id="path47" />
    <path
       d="m 103.89,16.257 -0.37254,-0.10732 c -0.0438,0.15207 0.20356,0.71002 0.16164,0.86171 0.0419,-0.15169 0.54072,-0.49881 0.58344,-0.64708 L 103.89,16.25699 Z"
       id="path49" />
    <path
       d="m 103.45,12.802 c 0,0 0.16342,0.35156 0.16342,0.35156 0.14347,-0.06669 0.40233,-0.61938 0.54433,-0.68723 -0.142,0.06786 -0.73122,-0.08094 -0.87117,-0.01588 0,0 0.16342,0.35156 0.16342,0.35156 z"
       id="path51" />
    <path
       d="m 101.63,16.693 0.37158,0.1106 c 0.0451,-0.15164 -0.19723,-0.71177 -0.15395,-0.86308 -0.0433,0.15131 -0.54518,0.49398 -0.58921,0.64189 l 0.37158,0.1106 z"
       id="path53" />
    <path
       d="m 105.66,15.069 c 0,0 0.33966,-0.08849 0.33966,-0.08849 -0.0381,-0.14639 -0.49044,-0.50504 -0.52789,-0.65443 0.0375,0.14939 -0.19034,0.68206 -0.15143,0.8314 0,0 0.33966,-0.08849 0.33966,-0.08849 z"
       id="path55" />
  </g>
  <path
     d="m 34.077804,59.263925 c 0.284123,1.271449 2.813268,2.522857 4.830074,2.052303 2.612719,-0.609444 3.521545,-2.748283 3.259226,-3.952132 L 31.554388,8.6608758 c 1.195884,-0.3259225 0.839845,-1.4365417 -0.259007,-1.2120952 -3.693306,0.7541597 -4.465312,0.8330797 -8.372443,1.8576236 -0.930755,0.2440399 -1.101549,1.3029638 0.231001,1.0810608 z"
     fill="#deeaed"
     fill-opacity="0.25098"
     stroke="#000000"
     stroke-linecap="round"
     stroke-linejoin="round"
     stroke-width="0.349387"
     id="path63"
     style="stroke-width:0.349;stroke-miterlimit:4;stroke-dasharray:none" />
  <path
     d="M 23.154553,10.387409 C 28.269586,9.0213317 30.910397,8.700147 31.554947,8.6608758"
     fill="none"
     stroke="#000000"
     stroke-linecap="round"
     stroke-linejoin="round"
     stroke-width="0.317625"
     id="path65" />
  <path
     d="m 30.702721,9.5558669 c 0.214678,0.9928881 0.442283,4.0456281 0.656961,5.0384471 0.91949,4.236673 2.844014,12.580605 4.853551,21.184063 1.885854,8.074345 4.068967,17.308656 4.874096,20.876602 -0.94529,-4.189016 -2.64109,-12.227584 -4.459442,-20.967443 -1.739671,-8.361821 -3.581223,-17.32403 -4.4382,-21.273506 -0.215405,-0.99254 -1.271532,-3.865903 -1.486994,-4.8584427 z"
     fill="#ffffff"
     id="path67"
     style="stroke-width:1.39755" />
  <path
     d="M 31.7411,7.8634338 C 31.625993,7.8844895 31.245809,7.7560881 31.130708,7.7771553 30.250041,7.9376356 28.561452,8.289623 27.061741,8.6441676 25.216136,9.0805382 24.242463,9.3661697 23.031346,9.6891296 24.0426,9.4194579 25.440443,9.1214032 27.100733,8.8347091 28.66557,8.5644934 30.310066,8.3220739 31.200445,8.1598184 31.315518,8.1388551 31.626027,7.8844028 31.7411,7.8634257 Z"
     fill="#ffffff"
     id="path69"
     style="stroke-width:1.39755" />
  <rect
     style="fill:#eeeeee;fill-opacity:1;stroke:#000000;stroke-width:0.393209;stroke-linecap:round;stroke-linejoin:miter;stroke-miterlimit:100;stroke-dasharray:none"
     id="rect872"
     width="8.1808395"
     height="7.5713744"
     x="20.834173"
     y="34.227089"
     transform="rotate(-12)" />
</svg>
