<svg viewBox="0 0 429.21 414.47" version="1.0" xmlns="http://www.w3.org/2000/svg"><path d="M594.33 285.87c2.336-1.587 5.376-4.597 16.113-.763 32.079 9.138 33.882 26.31 34.509 69.786 0 14.571 8.436 81.29 12.27 85.123 3.834 3.835-2.416 13.93-2.416 13.93l59.09 121.16 9.277 2.185s16.402 31.012 21.473 37.577c4.632 5.996 8.761 7.664 5.368 13.804-4.647 8.41-12.27 11.503-12.27 11.503s-7.669 16.871-15.338 13.804c-7.669-3.067-40.767-42.316-40.767-42.316-11.796-24.936-56.794-72.83-54.878-104.85 0 0-1.749-138.88-3.282-149.62-1.534-10.736-6.135-53.68-18.405-59.816-12.27-6.135-10.744-11.507-10.744-11.507z" style="fill:#ffe680;stroke:#1a1a1a;stroke-width:.71;stroke-miterlimit:4;stroke-dasharray:none;stroke-opacity:1" transform="translate(-325.71 -269.18)"/><path d="M750.663 621.125c1.342 5.904 1.963 8.434-1.258 12.191-3.22 3.757-14.82 11.271-16.698 16.37-1.879 5.099-4.83 9.66-8.588 12.613-3.756 2.952-5.635 4.294-9.66 2.683-4.026-1.61-68.633-17.926-76.952-19.268-9.59-.356-15.17-5.029-13.418-12.344 1.342-5.099 2.494-22.984 3.568-24.862 1.073-1.879 6.172-4.026 9.392-2.684 3.22 1.342 41.182 4.683 60.235 11.929 19.053 7.245 35.69 20.126 38.375 20.932 2.683.805 9.392-2.952 12.076-6.977 2.683-4.026 1.086-12.197 1.086-12.197z" style="fill:#ffe680;stroke:#1a1a1a;stroke-width:.71016px;stroke-opacity:1" transform="translate(-325.71 -269.18)"/><path d="M590.74 285.42c-11.556-2.311-73.457-19.182-120.45-15.33-46.995 3.852-77.811 15.408-97.071 24.653-5.975 2.868-36.269 53.809-44.743 164.75-8.474 110.94 7.764 158.05 10.845 163.44 3.082 5.393 16.349 34.24 61.803 43.486 45.454 9.245 113.849 14.294 113.849 14.294s28.505 1.54 43.913-4.622c15.408-6.164 31.955-10.068 36.577-10.068s23.181-11.077 27.734-20.03c6.198-12.186 5.795-38.467 5.025-42.32-.77-3.851-3.852-9.244-3.852-9.244s5.393-3.082 3.852-7.704c-1.541-4.623 7.704-167.95.77-221.11-3.12-31.591-2.71-70.867-38.252-80.2z" style="fill:#ffe680;stroke:#1a1a1a;stroke-width:.71;stroke-miterlimit:4;stroke-dasharray:none;stroke-opacity:1" transform="translate(-325.71 -269.18)"/><path d="M374.81 299.6s-32.967 26.551-41.113 176.14c-1.74 31.937 4.74 76.277 8.205 95.092 7.709 41.855 24.525 42.203 31.73 45.029 7.204 2.826 59.25 12.352 77.484 12.481 10.608.075 31.243 6.286 39.955-14.016 8.983-20.932 31.843-122.93 34.805-154.03 2.962-31.102 14.81-111.82 15.551-115.52.74-3.703 1.481-23.697 11.848-31.102 10.367-7.405 39.248-19.254 39.248-19.254s-26.535-10.937-66.626-16.444c-51.18-7.03-121.19-6.61-151.09 21.628z" style="stroke:#1a1a1a;stroke-width:.71016px;fill:#ff8080" transform="translate(-325.71 -269.18)"/><path d="m519.41 520.35 54.16 36.24" style="stroke:#ffb380;stroke-dasharray:4.26098076,4.26098076;stroke-width:.71016;fill:none" transform="translate(-325.71 -269.18)"/><path d="m583.99 568.2 42.227 31.811M522.13 512.86l51.44 35.59M585.39 561.91l37.03 27.25M565.43 311.29s-11.94 0-17.91 21.166c-5.97 21.166-19.538 145.99-20.623 155.22-1.085 9.226-16.824 77.066-18.452 83.036-1.628 5.97-9.769 43.96-14.653 49.93-4.884 5.97-7.598 11.397-15.196 13.025-7.598 1.628-59.699-4.342-82.493-8.684-22.794-4.341-36.362-11.94-37.99-13.568l-1.628-1.628M593.11 293.92s9.226 3.256 12.482 8.14c3.256 4.885 9.769 20.624 12.482 46.675 2.714 26.05 6.513 113.43 7.598 125.91 1.085 12.482 1.085 87.377-1.085 96.603-2.171 9.226-1.629 17.367-1.629 17.367" style="stroke:#ffb380;stroke-dasharray:2.84065384,2.84065384;stroke-width:.71016;fill:none" transform="translate(-325.71 -269.18)"/><path d="m520.192 495.68-82.995 41.816s-7.872 3.94-7.878 12.605l-.06 76.116s29.156 2.779 34.136 2.942c14.668.481 22.682-4.144 27.616-14.972 2.488-5.46 13.42-41.422 18.243-66.32 3.994-17.186 8.417-34.68 10.938-52.187zM333.478 496.53c9.53 10.375 31.897 21.766 47.799 33.783 8.996 6.799 11.507 12.663 11.376 18.705-.788 13.393 1.033 71.454 1.033 71.454s-28.578-5.257-36.85-12.069c-13.393-11.03-18.804-60.341-22.06-81.936-1.683-9.916-2.098-19.928-1.298-29.937z" style="fill:#ffb380;stroke:#1a1a1a;stroke-width:.71;stroke-miterlimit:4;stroke-dasharray:none;stroke-opacity:1" transform="translate(-325.71 -269.18)"/><path d="M455.526 284.983s-14.216 9.036-20.176 32.874c-11.4 47.591-14.885 60.087-22.194 108.003-2.341 14.51-8.596 63.243-9.281 114.44-.29 21.58-2.533 79.09-.546 81.739 4.743 1.362 17.549 2.709 17.549 2.709-2.044-12.576-1.312-75.345 3.028-130.16 3.114-39.327 8.043-68.994 10.037-79.525 6.79-40.494 9.154-70.025 25.99-112.862 5.779-11.915 16.79-16.045 16.79-16.045z" style="fill:#ffb380;stroke:#1a1a1a;stroke-width:.71016" transform="translate(-325.71 -269.18)"/><path d="M370.6 300.43s27.679-16.824 79.779-14.653c52.101 2.17 104.2 8.14 116.14 22.794 11.94 14.653 10.854 88.463 11.397 94.433.254 2.799 3.114 36.825 1.473 78.709-1.86 47.454-8.576 105.3-14.498 144.89-5.798 38.751-34.473 43.766-68.911 41.571-26.816-1.71-59.263-6.937-73.281-9.55-14.018-2.614-63.901-6.718-82.493-41.246-8.565-15.906-11.94-59.7-11.94-59.7s-.543 48.303 8.14 65.67c8.684 17.367 24.887 29.677 43.96 37.447 29.307 11.94 100.4 19.024 119.94 20.08 20.303 1.097 42.92-4.636 48.844-7.598 8.684-4.342 20.623-19.538 24.965-35.277 4.342-15.74 21.71-157.93 18.452-200.8-3.256-42.875-5.427-113.43-10.312-124.82-3.325-7.76-22.404-25.73-84.664-32.563-60.999-6.695-99.86 2.713-105.29 4.884-5.427 2.17-21.965 14.628-21.965 14.628z" style="fill:#fd5;stroke:#ffb380;stroke-width:.71016;stroke-dasharray:2.13049,2.13049" transform="translate(-325.71 -269.18)"/><path d="M411.3 623.89c-1.042 1.562 4.73 22.039 11.515 31.354 3.513 4.823 7.82 5.795 7.82 5.795-.12.02-.404 9.712 7.528 12.46 5.547 1.922 12.213 1.95 12.213 1.95s-12.5-4.285-14.015-7.97c-.825-2.008-1.704-6.76-1.704-6.76-10.63-5.087-16.074-18.846-19.557-36.286z" style="stroke:#ffb380;stroke-dasharray:2.84065384,2.84065384;stroke-width:.71016;fill:#fd5" transform="translate(-325.71 -269.18)"/><path d="M658.31 441.765s-5.452 5.67-5.235 12.314c.3 9.21 49.131 119.46 61.656 123.52 5.981 1.937 8.635.042 8.635.042-7.429-7.056-55.792-94.948-65.056-135.876z" style="fill:#ff8080;stroke:#1a1a1a;stroke-width:.71;stroke-linejoin:round;stroke-miterlimit:4;stroke-dasharray:none;stroke-opacity:1" transform="translate(-325.71 -269.18)"/></svg>