<?xml version="1.0" encoding="UTF-8" standalone="no"?>
<svg
   cursor="default"
   viewBox="0 0 256 256"
   version="1.1"
   id="svg81"
   sodipodi:docname="leather_gloves.svg"
   inkscape:version="1.1.1 (3bf5ae0d25, 2021-09-20)"
   xmlns:inkscape="http://www.inkscape.org/namespaces/inkscape"
   xmlns:sodipodi="http://sodipodi.sourceforge.net/DTD/sodipodi-0.dtd"
   xmlns:xlink="http://www.w3.org/1999/xlink"
   xmlns="http://www.w3.org/2000/svg"
   xmlns:svg="http://www.w3.org/2000/svg">
  <sodipodi:namedview
     id="namedview83"
     pagecolor="#505050"
     bordercolor="#eeeeee"
     borderopacity="1"
     inkscape:pageshadow="0"
     inkscape:pageopacity="0"
     inkscape:pagecheckerboard="0"
     showgrid="false"
     inkscape:zoom="2.8085938"
     inkscape:cx="105.21279"
     inkscape:cy="141.17385"
     inkscape:window-width="1920"
     inkscape:window-height="1057"
     inkscape:window-x="-8"
     inkscape:window-y="-8"
     inkscape:window-maximized="1"
     inkscape:current-layer="g79" />
  <defs
     id="defs33">
    <linearGradient
       id="linearGradient1608">
      <stop
         offset="0"
         stop-color="#ffd5d5"
         id="stop2" />
      <stop
         offset="1"
         stop-color="#ffd5d5"
         stop-opacity="0"
         id="stop4" />
    </linearGradient>
    <linearGradient
       id="linearGradient1574">
      <stop
         offset="0"
         stop-color="#ff8080"
         id="stop7" />
      <stop
         offset="1"
         stop-color="#f55"
         id="stop9" />
    </linearGradient>
    <linearGradient
       id="linearGradient1566">
      <stop
         offset="0"
         stop-color="#ff8080"
         id="stop12" />
      <stop
         offset="1"
         stop-color="#faa"
         id="stop14" />
    </linearGradient>
    <linearGradient
       id="linearGradient1568"
       x1="370.547"
       x2="411.944"
       y1="1043.063"
       y2="977.316"
       gradientTransform="rotate(-6.075 1384.35 3162.458) scale(.84733)"
       gradientUnits="userSpaceOnUse"
       xlink:href="#linearGradient1566" />
    <linearGradient
       id="linearGradient1576"
       x1="335.357"
       x2="338.75"
       y1="973.612"
       y2="970.219"
       gradientTransform="rotate(-6.075 1384.35 3162.458) scale(.84733)"
       gradientUnits="userSpaceOnUse"
       xlink:href="#linearGradient1574" />
    <linearGradient
       id="linearGradient1584"
       x1="337.768"
       x2="340.804"
       y1="948.791"
       y2="946.38"
       gradientTransform="rotate(-6.075 1384.35 3162.458) scale(.84733)"
       gradientUnits="userSpaceOnUse"
       xlink:href="#linearGradient1574" />
    <linearGradient
       id="linearGradient1592"
       x1="356.607"
       x2="358.571"
       y1="933.88"
       y2="932.273"
       gradientTransform="rotate(-6.075 1384.35 3162.458) scale(.84733)"
       gradientUnits="userSpaceOnUse"
       xlink:href="#linearGradient1574" />
    <linearGradient
       id="linearGradient1594"
       x1="402.679"
       x2="400.714"
       y1="930.576"
       y2="933.969"
       gradientTransform="rotate(-6.075 1384.35 3162.458) scale(.84733)"
       gradientUnits="userSpaceOnUse"
       xlink:href="#linearGradient1574" />
    <linearGradient
       id="linearGradient1602"
       x1="387.574"
       x2="398.703"
       y1="1005.419"
       y2="1011.732"
       gradientTransform="rotate(-6.075 1384.35 3162.458) scale(.84733)"
       gradientUnits="userSpaceOnUse"
       xlink:href="#linearGradient1608" />
    <linearGradient
       id="linearGradient1610"
       x1="396.875"
       x2="402.946"
       y1="995.487"
       y2="1000.309"
       gradientTransform="rotate(-6.075 1384.35 3162.458) scale(.84733)"
       gradientUnits="userSpaceOnUse"
       xlink:href="#linearGradient1608" />
    <linearGradient
       id="linearGradient1618"
       x1="407.411"
       x2="412.5"
       y1="984.684"
       y2="989.326"
       gradientTransform="rotate(-6.075 1384.35 3162.458) scale(.84733)"
       gradientUnits="userSpaceOnUse"
       xlink:href="#linearGradient1608" />
    <linearGradient
       id="linearGradient1576-4"
       x1="335.357"
       x2="338.75"
       y1="973.612"
       y2="970.219"
       gradientTransform="scale(-.84733 .84733) rotate(69.227 .452 584.586)"
       gradientUnits="userSpaceOnUse"
       xlink:href="#linearGradient1574" />
    <linearGradient
       id="linearGradient1592-6"
       x1="356.607"
       x2="358.571"
       y1="933.88"
       y2="932.273"
       gradientTransform="scale(-.84733 .84733) rotate(69.227 .452 584.586)"
       gradientUnits="userSpaceOnUse"
       xlink:href="#linearGradient1574" />
    <linearGradient
       id="linearGradient1584-7"
       x1="337.768"
       x2="340.804"
       y1="948.791"
       y2="946.38"
       gradientTransform="scale(-.84733 .84733) rotate(69.227 .452 584.586)"
       gradientUnits="userSpaceOnUse"
       xlink:href="#linearGradient1574" />
    <linearGradient
       id="linearGradient1594-9"
       x1="402.679"
       x2="400.714"
       y1="930.576"
       y2="933.969"
       gradientTransform="scale(-.84733 .84733) rotate(69.227 .452 584.586)"
       gradientUnits="userSpaceOnUse"
       xlink:href="#linearGradient1574" />
    <linearGradient
       id="linearGradient1568-5"
       x1="450.132"
       x2="391.774"
       y1="965.192"
       y2="997.716"
       gradientTransform="scale(-.84733 .84733) rotate(69.227 .452 584.586)"
       gradientUnits="userSpaceOnUse"
       xlink:href="#linearGradient1566" />
    <linearGradient
       id="linearGradient1602-4"
       x1="387.574"
       x2="398.703"
       y1="1005.419"
       y2="1011.732"
       gradientTransform="scale(-.84733 .84733) rotate(69.227 .452 584.586)"
       gradientUnits="userSpaceOnUse"
       xlink:href="#linearGradient1608" />
    <linearGradient
       id="linearGradient1610-4"
       x1="396.875"
       x2="402.946"
       y1="995.487"
       y2="1000.309"
       gradientTransform="scale(-.84733 .84733) rotate(69.227 .452 584.586)"
       gradientUnits="userSpaceOnUse"
       xlink:href="#linearGradient1608" />
    <linearGradient
       id="linearGradient1618-3"
       x1="407.411"
       x2="412.5"
       y1="984.684"
       y2="989.326"
       gradientTransform="scale(-.84733 .84733) rotate(69.227 .452 584.586)"
       gradientUnits="userSpaceOnUse"
       xlink:href="#linearGradient1608" />
  </defs>
  <g
     stroke="#000"
     id="g79">
    <path
       fill="url(#linearGradient1576)"
       fill-rule="evenodd"
       stroke-width=".635"
       d="M18.377 934.438s1.738-.415 2.8.024c3.148 1.302 8.535 8.571 13.718 11.613 5.875 3.449 19.682 6.997 19.682 6.997.032 6.345-1.646 10.937-11.024 7.629-8.396-8.79-32.048-19.042-25.176-26.263z"
       transform="translate(0 -796.362)"
       id="path35" />
    <path
       fill="url(#linearGradient1592)"
       fill-rule="evenodd"
       stroke-width=".635"
       d="M28.73 892.317c14.75 10.652 29.32 20.491 43.677 29.36l-11.305 11.017z"
       transform="translate(0 -796.362)"
       id="path37" />
    <path
       fill="url(#linearGradient1584)"
       fill-rule="evenodd"
       stroke-width=".635"
       d="M12.686 905.24c2.596.628 5.142 2.835 8.046 5.33 10.494 9.014 23.234 17.79 34.85 26.685l-8.2 3.832c-18.186-13.122-40.57-27.025-34.696-35.848z"
       transform="translate(0 -796.362)"
       id="path39" />
    <path
       fill="#ff8080"
       fill-rule="evenodd"
       stroke-width=".635"
       d="M30.415 91.059c4.121 8.224 24.833 23.75 35.47 35.178 1.642-8.856-24.24-42.785-35.47-35.178zM10.736 100.154c.566 1.87 1.717 4.317 5.923 8.139 12.476 11.337 26.01 23.017 36.034 32.747 5.96-2.958-11.612-29.447-41.957-40.886z"
       id="path41" />
    <path
       fill="url(#linearGradient1594)"
       fill-rule="evenodd"
       stroke-width=".635"
       d="M91.403 895.58c-8.31 3.77 5.836 24.156 1.049 25.712 0 0 16.821 6.502 16.564 6.225-.258-.276-17.613-31.937-17.613-31.937z"
       transform="translate(0 -796.362)"
       id="path43" />
    <path
       fill="#f55"
       fill-rule="evenodd"
       stroke-width=".75"
       d="M127.71 227.146c2.7.381 8.842-14.587 17.768-27.712 8.81-12.955 22.038-23.15 18.939-25.69-31.125-8.475-49.136 38.228-36.708 53.402z"
       id="path45" />
    <path
       fill="url(#linearGradient1568)"
       fill-rule="evenodd"
       stroke-width=".635"
       d="M127.508 1023.638c-1.594-3.325 16.356-35.36 30.794-47.633 2.522-2.144 6.635-5.816 5.917-6.3-6.186-4.164-18.707-8.59-22.356-15.381-8.354-15.547-.356-20.63-38.522-50.947-2.884-2.291-5.594-10.761-9.844-9.082-12.44 4.917 9.338 19.843 9.195 27.386-21.907-13.585-41.415-29.403-61.928-44.286-2.507-1.818-7.24-1.476-9.1 1.14-2.39 3.361-2.49 8.432-.881 9.714 11.698 9.316 21.908 19.828 31.773 30.618 2.527 2.764 1.1 7.39-1.417 4.885-13.073-13.006-24.549-28.416-39.594-38.393-.852-.565-8.465.933-9.409 2.02-2.071 2.381-2.652 8.12-.797 10.257 3.433 3.953 7.541 5.903 11.312 9.177 9.843 8.547 18.743 18.915 27.356 27.593 1.767 1.78.62 5.003-1.856 2.78-11.805-10.596-24.199-19.152-35.252-31.97-1.745-.085-4.355-1.507-5.896.092-3.346 3.47-4.482 12.162-.2 15.406 14.44 10.943 27.049 24.78 43.495 32.598 1.232.586-.44 5.727-2.313 4.55-11.64-7.319-21.867-14.781-29.126-23.531-7.585.902-9.57 4.926-7.395 10.112.88 2.1 1.345 4.826 4.1 6.937 9.476 7.26 56.127 38.578 79.825 47.487 4.251 1.598 7.104 4.608 11.21 7.931 2.39 1.933 6.077 3.346 9.14 6.055 4.09 3.617 7.254 11.165 11.769 10.785z"
       id="path47"
       transform="translate(0 -796.362)" />
    <g
       id="g4330">
      <path
         fill="url(#linearGradient1602)"
         fill-rule="evenodd"
         stroke-width="0.424"
         d="m 53.002626,162.4751 c 16.552,9.343 33.499,17.785 50.974004,25.023"
         id="path49"
         sodipodi:nodetypes="cc"
         style="fill:none;stroke-width:0.42399999;stroke-miterlimit:4;stroke-dasharray:1.27199998, 0.42399999;stroke-dashoffset:0;stroke:#ffb380" />
      <path
         fill="url(#linearGradient1610)"
         fill-rule="evenodd"
         stroke-width="0.424"
         d="m 53.700062,143.80942 c 12.46,12.3 32.72,21.789 52.816998,35.897"
         id="path51"
         sodipodi:nodetypes="cc"
         style="fill:none;stroke-width:0.42399999;stroke-miterlimit:4;stroke-dasharray:1.27199998, 0.42399999;stroke-dashoffset:0;stroke:#ffb380" />
      <path
         fill="url(#linearGradient1618)"
         fill-rule="evenodd"
         stroke-width="0.424"
         d="m 67.390957,129.76136 c 13.864,8.449 27.33,23.673 45.886003,38.69"
         id="path53"
         sodipodi:nodetypes="cc"
         style="fill:none;stroke-width:0.42399999;stroke-miterlimit:4;stroke-dasharray:1.27199998, 0.42399999;stroke-dashoffset:0;stroke:#ffb380" />
      <path
         fill="none"
         stroke-dasharray="1.271, 0.423666"
         stroke-width="0.424"
         d="m 120.922,223.027 c 16.403,-32.66 28.25,-45.887 39.219,-52.055"
         id="path55"
         style="stroke:#ffb380"
         sodipodi:nodetypes="cc" />
    </g>
    <path
       fill="url(#linearGradient1576-4)"
       fill-rule="evenodd"
       stroke-width=".635"
       d="M193.923 848.762s-.842 1.576-.687 2.715c.461 3.375 6.125 10.43 7.753 16.215 1.845 6.558 1.774 20.813 1.774 20.813 6.13 1.64 10.997 1.183 10.177-8.727-6.373-10.351-10.289-35.832-19.017-31.016z"
       transform="translate(0 -796.362)"
       id="path57" />
    <path
       fill="url(#linearGradient1592-6)"
       fill-rule="evenodd"
       stroke-width=".635"
       d="M150.554 848.09c6.561 16.97 12.382 33.56 17.317 49.697l13.526-8.14z"
       transform="translate(0 -796.362)"
       id="path59" />
    <path
       fill="url(#linearGradient1584-7)"
       fill-rule="evenodd"
       stroke-width=".635"
       d="M167.124 835.85c-.05 2.67 1.438 5.693 3.114 9.135 6.058 12.437 11.314 26.987 16.971 40.48l5.787-6.959c-8.08-20.921-15.848-46.099-25.872-42.656z"
       transform="translate(0 -796.362)"
       id="path61" />
    <path
       fill="#ff8080"
       fill-rule="evenodd"
       stroke-width=".635"
       d="M145.39 52.116c6.91 6.073 16.673 30.046 25.028 43.235-8.981-.66-35.234-34.303-25.028-43.235zM159.181 35.388c1.664 1.022 3.74 2.757 6.37 7.794 7.8 14.945 15.664 30.998 22.533 43.163-4.373 5.014-25.537-18.703-28.903-50.957z"
       id="path63" />
    <path
       fill="url(#linearGradient1594-9)"
       fill-rule="evenodd"
       stroke-width=".635"
       d="M137.81 909.54c5.755-7.082 21.885 11.774 24.605 7.538 0 0 2.021 17.921 1.819 17.602-.203-.32-26.424-25.14-26.424-25.14z"
       transform="translate(0 -796.362)"
       id="path65" />
    <path
       fill="#f55"
       fill-rule="evenodd"
       stroke-width=".75"
       d="M252.342 180.752c-.317 2.71-16.354 4.853-31.314 10.157-14.766 5.236-27.983 15.444-29.654 11.802-.302-32.256 49.443-37.83 60.968-21.959z"
       id="path67" />
    <path
       fill="url(#linearGradient1568-5)"
       fill-rule="evenodd"
       stroke-width=".635"
       d="M252.518 976.952c-2.811-2.384-38.352 6.851-53.887 17.703-2.713 1.895-7.31 4.942-7.595 4.125-2.459-7.04-3.562-20.274-9.206-25.527-12.919-12.024-19.865-5.578-39.507-50.187-1.485-3.37-8.99-8.14-6.287-11.826 7.912-10.786 16.824 14.067 24.157 15.843-7.583-24.638-17.935-47.52-27.126-71.138-1.123-2.886.41-7.377 3.412-8.513 3.857-1.459 8.788-.27 9.62 1.612 6.043 13.679 13.62 26.222 21.555 38.501 2.032 3.146 6.869 2.94 5.084-.13-9.264-15.946-21.258-30.955-27.091-48.04-.33-.967 3.05-7.95 4.34-8.589 2.829-1.399 8.528-.504 10.124 1.832 2.953 4.323 3.796 8.792 6.007 13.27 5.77 11.689 13.541 22.928 19.75 33.461 1.273 2.161 4.681 1.87 3.16-1.09-7.254-14.107-12.386-28.265-21.98-42.209.36-1.71-.354-4.595 1.584-5.68 4.206-2.356 12.9-1.25 14.953 3.714 6.921 16.745 17.106 32.452 20.496 50.344.254 1.34 5.652 1.026 4.988-1.084-4.126-13.115-8.75-24.901-15.372-34.142 2.797-7.108 7.193-8.008 11.658-4.589 1.808 1.385 4.326 2.526 5.67 5.727 4.618 11.007 23.076 64.077 25.68 89.26.468 4.518 2.656 8.04 4.829 12.856 1.264 2.802 1.695 6.727 3.538 10.377 2.46 4.874 8.96 9.849 7.446 14.12z"
       id="path69"
       transform="translate(0 -796.362)" />
    <g
       id="g4354">
      <path
         fill="url(#linearGradient1602-4)"
         fill-rule="evenodd"
         stroke-width="0.424"
         d="m 220.83863,148.83055 c -2.847,-19.55 -7.13,-38.318 -12.283,-56.609999"
         id="path71"
         sodipodi:nodetypes="cc"
         style="fill:none;stroke-width:0.424;stroke-miterlimit:4;stroke-dasharray:1.272, 0.424;stroke-dashoffset:0;stroke:#ffb380" />
      <path
         fill="url(#linearGradient1610-4)"
         fill-rule="evenodd"
         stroke-width="0.424"
         d="m 211.1807,150.95993 c -7.538,-24.891 -13.611,-46.724 -20.037,-60.807004"
         id="path73"
         sodipodi:nodetypes="cc"
         style="fill:none;stroke-width:0.424;stroke-miterlimit:4;stroke-dasharray:1.272, 0.424;stroke-dashoffset:0;stroke:#ffb380" />
      <path
         fill="url(#linearGradient1618-3)"
         fill-rule="evenodd"
         stroke-width="0.424"
         d="m 173.29303,98.248876 c 4.654,15.554004 15.964,32.441004 25.781,54.200004"
         id="path75"
         sodipodi:nodetypes="cc"
         style="fill:none;stroke-width:0.424;stroke-miterlimit:4;stroke-dasharray:1.272, 0.424;stroke-dashoffset:0;stroke:#ffb380" />
      <path
         fill="none"
         stroke-dasharray="1.271, 0.423666"
         stroke-width="0.424"
         d="m 250.08,173.143 c -35.753,7.58 -51.554,15.684 -60.303,24.728"
         id="path77"
         style="stroke:#ffb380"
         sodipodi:nodetypes="cc" />
    </g>
    <path
       d="m 102.589,125.378 c 18.56298,5.69884 25.4019,17.09988 37.83321,30.02871"
       style="fill:none;stroke:#ffb380;stroke-width:0.424;stroke-miterlimit:4;stroke-dasharray:1.272, 0.424;stroke-dashoffset:0"
       id="path26805" />
    <path
       fill="none"
       stroke-dasharray="1.271, 0.423666"
       stroke-width="0.424"
       d="m 160.233,130.905 c 1.64018,24.67377 9.72765,35.04027 17.54535,42.55019"
       id="path77-5"
       style="stroke:#ffb380"
       sodipodi:nodetypes="cc" />
  </g>
</svg>
