<?xml version="1.0" encoding="UTF-8" standalone="no"?>
<svg
   cursor="default"
   version="1.1"
   viewBox="0 0 256 256"
   id="svg4"
   sodipodi:docname="digital_time_steps.svg"
   inkscape:version="1.1.1 (3bf5ae0d25, 2021-09-20)"
   xmlns:inkscape="http://www.inkscape.org/namespaces/inkscape"
   xmlns:sodipodi="http://sodipodi.sourceforge.net/DTD/sodipodi-0.dtd"
   xmlns="http://www.w3.org/2000/svg"
   xmlns:svg="http://www.w3.org/2000/svg">
  <defs
     id="defs8" />
  <sodipodi:namedview
     id="namedview6"
     pagecolor="#505050"
     bordercolor="#eeeeee"
     borderopacity="1"
     inkscape:pageshadow="0"
     inkscape:pageopacity="0"
     inkscape:pagecheckerboard="0"
     showgrid="false"
     inkscape:zoom="3.9719514"
     inkscape:cx="139.47804"
     inkscape:cy="125.50506"
     inkscape:window-width="1920"
     inkscape:window-height="1057"
     inkscape:window-x="-8"
     inkscape:window-y="-8"
     inkscape:window-maximized="1"
     inkscape:current-layer="svg4" />
  <path
     style="fill:#ffffff;stroke-width:0.716873"
     d="m 108.85056,164.30192 v -1.5662 l 15.95043,0.37735 c 8.77273,0.20755 16.83755,0.391 17.92183,0.40766 1.09651,0.0168 1.97134,0.43302 1.97127,0.93776 -9e-5,0.70117 -4.07475,0.96457 -17.92182,1.15856 l -17.92171,0.25106 z m 36.56052,-0.0106 c 0,-1.33816 0.19116,-1.52932 0.86024,-0.86024 0.66909,0.66908 0.66909,1.05141 0,1.72049 -0.66908,0.66908 -0.86024,0.47792 -0.86024,-0.86025 z m -24.60792,-4.81717 c -0.55335,-0.89531 0.23664,-3.7853 1.03473,-3.7853 0.80597,0 0.8028,2.20681 -0.005,3.48169 -0.33952,0.53581 -0.80197,0.67217 -1.02975,0.30361 z m -4.54987,-4.23266 c 0.23187,-1.42888 0.96926,-3.20313 1.63864,-3.9428 1.16055,-1.28238 1.13064,-1.34483 -0.64392,-1.34483 -1.02353,0 -2.06036,-0.3226 -2.30404,-0.71688 -0.26756,-0.43293 0.70943,-0.71686 2.46676,-0.71686 3.31911,0 3.46037,0.41164 1.47604,4.30123 -0.78855,1.54571 -1.43374,3.30711 -1.43374,3.91424 0,0.60714 -0.3648,1.10388 -0.81067,1.10388 -0.5314,0 -0.66544,-0.89497 -0.38907,-2.59798 z m 7.29317,1.8811 c -0.4706,-0.76145 -0.005,-0.9517 1.88315,-0.76931 0.64145,0.062 1.35084,-0.36834 1.57645,-0.95624 0.27918,-0.72755 0.0755,-0.9405 -0.63775,-0.66679 -2.73972,1.05133 -4.14132,-4.14627 -1.5576,-5.77604 3.12537,-1.97142 5.69096,4.5189 2.97334,7.52183 -1.33113,1.47089 -3.52158,1.8051 -4.23759,0.64655 z m 3.70205,-4.70786 c 0.59748,-1.55702 -0.91934,-3.02127 -2.00506,-1.93556 -0.91763,0.91762 -0.34916,3.05905 0.81206,3.05905 0.41903,0 0.95588,-0.50556 1.193,-1.12349 z m 3.13346,4.03811 c -1.66537,-3.11176 -0.3737,-7.93272 2.12539,-7.93272 1.62931,0 2.8675,2.01205 2.8675,4.65967 0,2.64763 -1.23819,4.65968 -2.8675,4.65968 -0.76081,0 -1.71724,-0.62398 -2.12539,-1.38663 z m 3.2007,-3.33279 c 0,-2.01786 -0.3025,-2.80774 -1.07531,-2.80774 -1.14129,0 -1.85427,3.24664 -1.12839,5.13826 0.77612,2.02254 2.2037,0.51281 2.2037,-2.33052 z m 2.50906,4.00254 c 0,-0.39428 0.3226,-0.71687 0.71687,-0.71687 0.39429,0 0.71689,-1.29037 0.71689,-2.8675 0,-1.64227 -0.34382,-2.86748 -0.80467,-2.86748 -0.55594,0 -0.52879,-0.33237 0.0878,-1.07532 1.58571,-1.91064 2.15063,-1.15742 2.15063,2.8675 0,3.0268 0.24982,3.9428 1.0753,3.9428 0.59143,0 1.07532,0.32259 1.07532,0.71687 0,0.39429 -1.12909,0.71688 -2.50906,0.71688 -1.37998,0 -2.50906,-0.32259 -2.50906,-0.71688 z m -12.57933,-12.9588 c -0.7034,-1.13812 -1.13864,-5.89547 -0.70001,-7.6513 0.40716,-1.62981 2.76281,-2.25321 3.57127,-0.94509 0.73825,1.1945 -0.47592,8.55479 -1.47443,8.93795 -0.52713,0.20229 -1.15571,0.0486 -1.39683,-0.34156 z m 6.2798,-3.66369 c -1.2281,-1.2281 -1.07863,-2.01437 0.38533,-2.02717 0.94246,-0.008 1.02104,-0.15907 0.31588,-0.60628 -0.82478,-0.52307 -1.22203,-2.90288 -0.94404,-5.65539 0.0498,-0.49285 0.72646,-0.8961 1.50375,-0.8961 1.7342,0 3.12076,4.09394 1.90956,5.63806 -0.42209,0.5381 -0.77787,1.63888 -0.7906,2.44617 -0.0278,1.76379 -1.18265,2.29792 -2.37988,1.10071 z m -15.20666,-27.78133 c 0,-3.67028 0.95489,-4.83099 1.79549,-2.1825 0.2521,0.79427 0.74364,1.26784 1.09231,1.05234 0.34867,-0.2155 0.45223,-0.86536 0.23012,-1.44416 -0.2221,-0.57879 -0.0468,-1.05235 0.38976,-1.05235 0.47436,0 0.79355,1.44175 0.79355,3.58436 0,1.97141 -0.15098,3.58437 -0.33553,3.58437 -0.18454,0 -0.81682,-0.88713 -1.40505,-1.9714 -0.98476,-1.81521 -1.07177,-1.84696 -1.09819,-0.40074 -0.0158,0.86385 -0.3513,1.77003 -0.74559,2.01371 -0.44183,0.27307 -0.71687,-0.94839 -0.71687,-3.18363 z m 5.87836,2.68182 c -1.1878,-1.1878 -1.07971,-4.51706 0.18063,-5.56304 1.69078,-1.40322 3.56771,-0.57623 4.02254,1.77236 0.65575,3.38628 -2.11171,5.88214 -4.20317,3.79068 z m 2.72412,-2.72413 c 0,-1.43374 -0.35845,-2.15061 -1.07531,-2.15061 -1.08503,0 -1.53581,2.88492 -0.5974,3.82331 1.0277,1.0277 1.67271,0.38268 1.67271,-1.6727 z m 3.75175,2.40681 c -0.83949,-1.63821 -1.70422,-5.99117 -1.19017,-5.99117 0.20631,0 0.79836,1.00658 1.31564,2.23684 l 0.94052,2.23684 0.7985,-2.29061 c 0.43919,-1.25983 1.11005,-2.09807 1.49083,-1.86274 0.423,0.26144 0.26493,1.46742 -0.4064,3.10048 -1.4717,3.57999 -2.13519,4.15831 -2.94892,2.57036 z m 6.49483,-0.0251 c -0.3027,-0.78881 0.0751,-1.55901 1.09781,-2.23806 1.95536,-1.29832 2.03605,-2.54214 0.12557,-1.93579 -1.70589,0.54143 -1.95288,-0.72271 -0.26758,-1.36941 1.30857,-0.50216 3.13507,0.71353 3.13507,2.08662 0,0.49506 -0.72584,1.40641 -1.61296,2.02525 l -1.61297,1.12515 1.65528,0.0376 c 1.99742,0.0454 1.37253,1.47134 -0.64479,1.47134 -0.77766,0 -1.62161,-0.54121 -1.87544,-1.2027 z m 4.80775,0.0803 c 0,-0.61734 0.36885,-1.81165 0.81967,-2.654 0.61499,-1.14912 0.61499,-1.59982 0,-1.80481 -1.50672,-0.50224 -0.84188,-1.58749 0.97251,-1.58749 2.12529,0 2.18981,0.50611 0.54776,4.29632 -1.27667,2.94687 -2.33994,3.74205 -2.33994,1.74998 z M 108.85056,104.4325 c 0,-0.5974 0.63722,-1.07531 1.43374,-1.07531 1.27444,0 1.43375,-0.47792 1.43375,-4.301241 0,-3.345407 -0.23896,-4.301237 -1.07531,-4.301237 -1.51795,0 -1.33576,-1.243915 0.31131,-2.125397 0.76264,-0.408152 1.56912,-0.742095 1.79218,-0.742095 0.22306,0 0.40556,2.580743 0.40556,5.734983 0,5.257067 0.11948,5.734987 1.43375,5.734987 0.79653,0 1.43376,0.47791 1.43376,1.07531 0,0.81244 -0.87619,1.0753 -3.58437,1.0753 -2.7082,0 -3.58437,-0.26286 -3.58437,-1.0753 z m 9.08038,0.59739 c -0.99199,-0.992 -0.39968,-2.44405 2.00851,-4.92381 2.40165,-2.473054 2.79818,-3.256839 2.61663,-5.172151 -0.10106,-1.066066 -2.6766,-1.205483 -3.31086,-0.179217 -0.66344,1.07346 -1.79219,0.863595 -1.79219,-0.333214 0,-1.137071 2.11956,-2.534278 3.84447,-2.534278 1.62431,0 3.32427,2.041382 3.32427,3.991941 0,0.991075 -1.11493,2.972995 -2.59247,4.608469 l -2.59249,2.86956 h 2.59249 c 1.82649,0 2.59247,0.31771 2.59247,1.07531 0,0.7904 -0.82307,1.0753 -3.10646,1.0753 -1.70855,0 -3.32151,-0.21505 -3.58437,-0.47791 z m 8.6091,-0.52731 c -0.40476,-1.05479 0.0587,-1.86227 1.06869,-1.86227 0.32857,0 0.5974,0.64518 0.5974,1.43375 0,1.64373 -1.092,1.9246 -1.66609,0.42852 z m 8.83482,-0.42852 c 0,-1.34297 -1.0412,-1.79578 -3.41475,-1.48505 -1.91108,0.25018 -1.57957,-2.0631 0.90259,-6.298257 1.41946,-2.421945 2.88799,-4.403533 3.26337,-4.403533 0.3754,0 0.68253,1.916518 0.68253,4.25893 0,2.342412 0.35071,4.47568 0.77934,4.74059 0.56121,0.34684 0.56121,0.69979 0,1.26099 -0.42863,0.42863 -0.77934,1.36 -0.77934,2.0697 0,0.7097 -0.32259,1.29037 -0.71687,1.29037 -0.39428,0 -0.71687,-0.64518 -0.71687,-1.43374 z m -0.50531,-5.555765 c 0.50183,-2.612357 0.34614,-2.631385 -1.08777,-0.132939 -0.93669,1.632104 -0.99266,2.104344 -0.24934,2.104344 0.52712,0 1.12882,-0.887135 1.33711,-1.971405 z m 5.21618,5.862995 c -1.42133,-1.42135 -1.44294,-2.45785 -0.0513,-2.45785 0.59142,0 1.07532,0.32259 1.07532,0.71687 0,1.28552 2.75926,0.75344 3.19388,-0.61588 0.89737,-2.827384 -1.14309,-4.732529 -3.03857,-2.837054 -1.39316,1.393164 -1.79531,0.149788 -1.13237,-3.501122 0.60794,-3.348026 0.69904,-3.446706 3.38563,-3.667602 2.03277,-0.167137 2.67908,0.02192 2.4507,0.716873 -0.17059,0.519133 -1.17242,1.045953 -2.22628,1.170711 -1.97805,0.234168 -2.75765,2.282221 -0.86873,2.282221 1.56444,0 3.97072,2.905694 3.97072,4.794853 0,2.01428 -2.35793,4.52449 -4.25003,4.52449 -0.76039,0 -1.88948,-0.50693 -2.50906,-1.12651 z m -13.50291,-5.753863 c -0.64622,-0.646214 0.24359,-2.490193 0.98155,-2.034107 0.35297,0.218143 0.64176,0.861476 0.64176,1.429628 0,1.05566 -0.85409,1.3737 -1.62331,0.604479 z"
     id="path1313" />
</svg>
