<svg xmlns="http://www.w3.org/2000/svg" viewBox="0 0 64 64"><path d="M17.577 55.571c.002 3.049 1.528 5.34 4.077 6.055 7.444.974 13.538.585 19.474.07 3.376-.548 4.564-3.68 4.59-6.26l.31-30.664c-1.476.61-27.275.198-28.463-.351z" fill="#dcdcdc" fill-rule="evenodd"/><g stroke="#000" stroke-width=".4"><path d="M17.577 55.571c0 3.048 1.528 5.34 4.077 6.055 7.395.764 13.383.653 19.474.07 3.376-.548 4.564-3.68 4.59-6.26l.328-32.42c.057-5.729-8.591-11.865-8.603-13.175l-.017-1.82c.904.032.917-1.591-.078-1.571l-.01-1.13-11.056.04-.101 1.035c-1.075.098-.905 1.578-.054 1.565l.01 1.861c.006 1.676-8.545 6.565-8.548 13.208z" fill-rule="evenodd" fill-opacity=".251" fill="#d7eef4"/><path d="M26.184 6.404l11.371.07" fill="none"/><path d="M25.182 1.916l.036 4.02c3.082-.11 10.911.053 13.163.097l-.036-4.02c.053-.604-13.104-.557-13.163-.097z" fill-rule="evenodd" fill="#666"/></g><g fill="none"><path d="M27.02 1.892l.044 3.828m2.95-3.988l.058 4.094m6.452-3.854l.034 3.84m-3.206-4.056l.057 4.05" stroke-width="1.407" stroke="#333"/><path d="M26.242 7.947l11.372.049" stroke-width=".4" stroke="#000"/></g><path d="M38.527 15.78c1.817 1.149 3.135 2.907 3.993 4.734.319.47.609.957.867 1.45 1.174 2.244 1.69 4.61 1.436 6.07.575-1.417.393-3.933-.557-6.461a15.017 15.017 0 00-.738-1.657c-1.29-1.792-2.982-3.325-5.001-4.136z" fill="#fff" fill-rule="evenodd"/></svg>