<svg xmlns="http://www.w3.org/2000/svg" cursor="default" version="1.1" viewBox="0 0 256 256"><path d="M127.162 184.416v-4.324h1.932v8.648h-1.932zm-5.485 3.155c.11-1.449.127-1.499.48-1.499.286 0 .305.019.264.253-.046.322-.217 1.774-.217 1.93 0 .07-.117.117-.29.117h-.289zm12.38.778c-.055-.235-.235-2.158-.207-2.208.021-.038.155-.069.298-.069.295 0 .316.074.428 1.495l.063.805h-.288c-.16 0-.291-.01-.294-.023zm-18.418-.96c-.203-.053-.2-.138.051-1.317.205-.962.206-.966.468-.947.144.01.28.035.298.055.032.03-.23 1.416-.386 2.035-.059.234-.114.257-.43.174zm24.42-.734c-.347-1.514-.345-1.471-.048-1.53.144-.028.285-.023.315.01.071.08.486 2.13.44 2.176a1.11 1.11 0 0 1-.277.1c-.24.06-.246.05-.43-.75zm-30.406-.881c-.186-.064-.243-.131-.202-.24.032-.081.19-.575.348-1.098.282-.92.3-.948.524-.892.128.03.26.085.29.12.054.059-.557 2.075-.655 2.16-.025.02-.162 0-.305-.05zm36.596-.054a71.951 71.951 0 0 1-.687-2.003c0-.03.58-.224.597-.198 0 .013.141.45.31.973.16.522.312 1.004.34 1.07.025.073-.065.158-.23.216-.229.08-.287.07-.339-.058zm-42.432-2.152c-.113-.055-.207-.13-.207-.166 0-.06.796-1.893.885-2.04.05-.082.604.11.57.197-.306.743-.948 2.12-.988 2.115a1.528 1.528 0 0 1-.26-.106zm47.846-.923c-.417-.921-.452-1.047-.323-1.15.319-.253.436-.134.886.902.242.56.426 1.03.408 1.045a2.75 2.75 0 0 1-.47.238c-.018 0-.244-.465-.501-1.035zM98.227 180.7c-.17-.123-.17-.147-.031-.438.081-.17.517-.929.968-1.688.45-.759 1.335-2.28 1.966-3.38.63-1.099 1.19-2 1.244-2 .053 0 .173.054.266.122.157.115.113.218-.702 1.632l-1.502 2.614c-1.59 2.775-1.849 3.208-1.937 3.237-.06.018-.18-.027-.28-.099zm59.411.013a22.94 22.94 0 0 1-.643-1.08l-2.037-3.553c-.816-1.422-1.484-2.608-1.484-2.634 0-.027.1-.114.223-.195l.223-.146 1.307 2.275c.719 1.25 1.544 2.668 1.832 3.148.29.481.667 1.131.84 1.445.309.563.31.572.129.71-.227.172-.276.176-.39.03zm-64.63-3.417c-.09-.067-.162-.15-.162-.184 0-.05 1.074-1.576 1.288-1.83.034-.04.17.014.301.118l.24.19-.601.802c-.331.44-.623.854-.649.917-.06.147-.213.142-.418-.013zm69.275-.75c-.342-.478-.62-.904-.62-.946-.001-.086.442-.344.488-.284.439.58 1.259 1.75 1.259 1.796 0 .085-.301.307-.414.305-.05-.001-.372-.393-.713-.871zm-36.3-.8c.016-.216.07-.384.121-.374.123.025.167.268.1.542-.095.373-.25.254-.22-.169zm4.072.074c-.063-.334.007-.55.15-.462.112.07.11.778-.003.778-.048 0-.114-.142-.147-.316zm-6.137-.015c-.03-.03-.04-.102-.023-.16a6.96 6.96 0 0 0 .087-.36c.067-.304.237-.337.235-.046-.003.454-.144.721-.3.566zm8.166-.314c-.035-.209-.037-.406-.004-.44.086-.085.23.175.233.418 0 .114.005.237.008.274.004.037-.034.08-.084.097-.05.016-.118-.14-.154-.35zm-10.187-.234c-.07-.07.213-.777.311-.777.106 0 .098.192-.023.54-.097.279-.179.346-.288.237zm12.174-.238c-.12-.347-.13-.539-.023-.539.098 0 .381.707.31.777-.108.109-.19.041-.287-.238zm-14.112-.504c-.031-.032.027-.223.13-.425.245-.479.44-.34.207.147-.16.333-.226.388-.337.278zm16.001-.278c-.232-.487-.038-.626.207-.147.17.334.174.482.013.482-.033 0-.132-.15-.22-.335zm-17.848-.658c-.07-.115 1.35-2.503 1.49-2.503.152 0 .2-.1-.628 1.356-.666 1.173-.765 1.305-.862 1.147zm19.17-1.147c-.828-1.458-.78-1.356-.623-1.356.07 0 .42.512.78 1.138.7 1.216.76 1.352.62 1.401-.05.018-.407-.515-.786-1.183zm-49.114.94-.217-.18.301-.344c.166-.19.523-.592.794-.893l.493-.547.22.225.22.225-.797.847-.797.848zm78.92-.64c-.76-.833-.827-.998-.483-1.183.144-.077.281.035.902.738.403.455.742.855.753.89.01.034-.079.133-.2.22-.218.16-.219.16-.972-.666zm-50.778-.345c.002-.038.122-.207.266-.375.32-.374.472-.232.177.166-.187.253-.452.38-.443.21zm23.188-.216c-.133-.18-.179-.317-.124-.372.055-.055.178.031.332.233.276.362.294.424.123.424-.066 0-.215-.128-.331-.285zm-24.756-1.055c0-.028.11-.196.244-.372.17-.222.274-.29.34-.224.066.066.014.18-.17.372-.245.257-.414.348-.414.224zm26.375-.206c-.278-.29-.307-.386-.115-.386.118 0 .512.454.512.59 0 .123-.164.04-.397-.204zm-27.847-1.288c0-.04.125-.194.277-.34.194-.186.305-.236.373-.168.068.068.01.17-.19.34-.292.244-.46.306-.46.168zm29.314-.116c-.229-.18-.33-.454-.167-.454.09 0 .569.49.569.58 0 .116-.156.067-.402-.126zm-58.828-.573-.193-.205.658-.597c1.106-1.004 1.062-.98 1.296-.742l.2.202-.736.686c-.96.894-.988.91-1.225.656zm87.673-.53c-.716-.635-.828-.772-.75-.917.203-.379.162-.4 1.668.924l.367.323-.222.208-.22.208zm-59.447-.39c0-.18.552-.56.657-.456.055.055-.03.177-.232.331-.363.277-.425.295-.425.124zm31.841-.145c-.2-.166-.275-.283-.209-.324.127-.078.66.3.66.468 0 .178-.102.145-.45-.144zm-32.988-1.57c-.03-.05.04-.148.155-.22.454-.284 2.298-1.35 2.334-1.35.021 0 .038.058.038.13 0 .07-.424.366-.943.657-.518.292-1.053.607-1.187.7-.28.194-.322.203-.397.081zm33.3-.609c-.658-.375-1.208-.744-1.225-.82-.016-.078-.01-.14.012-.14.065 0 2.385 1.364 2.48 1.458.046.047.048.107.005.134-.043.026-.616-.258-1.273-.632zm-34.228-1.246c-.075-.121-.054-.14.35-.309.228-.095.355-.109.396-.043.033.064.045.117.027.127-.3.182-.726.312-.773.234zm35.99-.1c-.47-.24-.322-.429.157-.2.185.088.336.19.336.23 0 .153-.156.144-.494-.03zm-66.092-.257a.956.956 0 0 1-.114-.223c0-.08 1.688-1.276 1.816-1.286.074-.006.194.08.268.188.13.192.1.224-.778.851-.503.36-.95.653-.996.653-.045 0-.133-.083-.196-.183zm95.452-.471-.894-.65.149-.226c.082-.125.204-.206.272-.18.195.074 1.782 1.258 1.779 1.326-.005.107-.244.384-.33.38-.045 0-.484-.294-.976-.65zm-66.077-1.076c-.107-.11-.038-.19.24-.29.37-.13.563-.13.52 0-.04.113-.686.36-.76.281zm37.49-.07c-.326-.12-.492-.32-.256-.32.215 0 .712.19.712.28 0 .132-.132.143-.456.032zm-38.052-1.99c-.082-.134-.038-.159.4-.229.44-.069.56.105.135.198-.139.03-.303.071-.365.09a.156.156 0 0 1-.17-.06zm38.83.051a8.272 8.272 0 0 0-.345-.08c-.41-.09-.308-.269.122-.21.207.027.4.075.431.105.074.074-.09.22-.208.187zm-71.025-1.668c-.195-.297-.255-.244 1.18-1.05.567-.318 2.167-1.235 3.557-2.038 2.31-1.332 2.538-1.444 2.645-1.298a.6.6 0 0 1 .118.27c0 .059-.673.493-1.495.963a434.67 434.67 0 0 0-3.61 2.095 804.921 804.921 0 0 1-2.176 1.272c-.033.018-.13-.078-.22-.213zm100.005-1.644c-1.77-1.035-3.438-1.995-3.703-2.134-.266-.14-.482-.275-.48-.3 0-.026.076-.145.17-.265.157-.205.18-.21.388-.074.121.08 1.772 1.034 3.668 2.12 1.896 1.086 3.458 2.01 3.47 2.051.014.043-.047.17-.135.28l-.159.202zm-68.126 1.17c0-.118.232-.2.568-.2.18-.001.262.039.238.115-.044.133-.806.212-.806.083zm38.885.015c-.13-.13-.05-.213.207-.213.324 0 .56.08.56.193 0 .095-.675.113-.767.02zm-39.005-2.02c-.167-.168.167-.217 1.46-.217 1.201 0 1.42.02 1.42.138 0 .116-.218.138-1.41.138-.776 0-1.437-.027-1.47-.06zm37.012-.08c0-.123.19-.14 1.45-.117.887.015 1.448.059 1.448.117 0 .056-.56.1-1.45.117-1.258.022-1.448.007-1.448-.117zm-36.685-1.95c-.114-.022-.207-.104-.207-.182 0-.09.052-.121.146-.085.08.03.266.057.414.057.177 0 .268.046.268.138 0 .137-.18.158-.62.073zm38.617-.064c0-.088.136-.141.414-.163.48-.038.58.143.126.233-.428.086-.54.07-.54-.071zm-73.585-1.028c-.106-.232-.095-.242.665-.592 1.484-.686 1.43-.672 1.532-.405.05.128.088.26.088.296 0 .059-2.004.946-2.124.94-.03-.001-.102-.11-.16-.24zm107.946-.18c-.506-.224-.954-.42-.996-.436-.083-.032.131-.527.237-.527.135 0 2.011.846 2.01.906-.005.204-.129.473-.217.47-.058-.002-.52-.187-1.025-.411zm-72.702-.753c-.114-.022-.207-.101-.207-.176 0-.108.074-.123.345-.074.404.072.483.11.483.227 0 .087-.238.095-.62.022zm38.065-.022c0-.117.08-.155.483-.227.266-.048.345-.033.345.068 0 .073-.128.156-.288.188-.398.08-.54.073-.54-.03zm-37.42-1.96c-.165-.053-.3-.155-.3-.227 0-.131.1-.12.621.076.228.082.297.272.102.256a2.757 2.757 0 0 1-.415-.105zm36.868.02c0-.09.158-.169.62-.313.153-.049.208-.029.208.074 0 .082-.14.18-.345.235-.43.12-.483.12-.483.004zm-36.086-1.92c-.19-.08-.345-.204-.345-.272 0-.083.054-.103.16-.06.09.036.275.107.414.157.247.087.324.207.184.282-.038.02-.224-.03-.413-.11zm35.402.104c-.106-.106-.045-.19.2-.279.14-.05.326-.12.415-.157.11-.043.16-.02.16.07 0 .137-.682.46-.775.367zm-32.758-.932a78.484 78.484 0 0 0-1.18-.698c-.542-.315-.873-.56-.823-.61.09-.089 2.51 1.261 2.51 1.401 0 .131-.208.094-.507-.09zm30.038.092c0-.14 2.418-1.492 2.508-1.402.08.08-.2.27-1.65 1.103-.665.383-.858.45-.858.298zm-71.56-.282-.096-.272 1.122-.367 1.12-.367.108.25c.06.136.08.273.046.304-.06.056-2.049.726-2.152.726-.03 0-.096-.123-.148-.273zm112.821.086a16.889 16.889 0 0 0-.989-.319c-.56-.16-.578-.18-.44-.54l.087-.23 1.101.367 1.102.368-.094.27c-.108.31-.14.313-.767.083zm-71.973-2.658c-.186-.158-.268-.286-.208-.323.122-.076.762.397.692.51-.077.126-.152.097-.484-.187zm31.408.188c-.077-.125.59-.6.696-.495.057.057-.027.176-.232.333-.352.268-.39.282-.464.162zm-30.083-1.75c-.376-.394-.206-.564.184-.186.17.165.287.334.26.376-.08.13-.175.09-.444-.19zm28.798.19c-.026-.04.09-.209.26-.374.39-.378.56-.208.184.185-.269.28-.364.321-.444.191zm-27.324-1.619c-.335-.44-.212-.59.147-.18.19.215.255.355.194.416-.06.06-.175-.019-.34-.236zm25.89.17c.007-.13.556-.668.606-.587.07.115-.32.644-.478.644-.065 0-.119-.026-.119-.057zm-71.148-.644c-.034-.133-.047-.255-.03-.272.077-.077 2.24-.473 2.293-.42.033.032.075.162.092.29.03.223-.002.238-.935.432-1.279.267-1.346.266-1.419-.028zm115.454.04c-.505-.099-.93-.19-.944-.205-.014-.014.001-.155.033-.314.047-.235.095-.282.254-.25.85.177 2.04.444 2.063.464.015.013 0 .132-.033.265-.072.286-.11.288-1.373.04zm-66.397-1.11c-.432-.746-.673-1.253-.622-1.305.105-.106.018-.23.845 1.206.627 1.088.72 1.318.537 1.318-.03 0-.372-.549-.76-1.22zm17.774 1.18c0-.034 1.37-2.434 1.444-2.53.018-.023.071-.002.118.045.107.107-1.275 2.524-1.444 2.524-.064 0-.117-.018-.117-.039zm-20-.938c-.172-.22-.229-.36-.168-.42s.177.02.347.241c.344.451.176.62-.177.177zm22.81.242c-.08-.127.39-.763.51-.69.13.08.101.153-.185.487-.167.196-.285.27-.326.203zm-11.365-3.047c.001-1.144.027-1.47.116-1.44.084.026.122.425.14 1.48.023 1.239.007 1.439-.114 1.439-.12.001-.14-.214-.14-1.479zm-7.915.766c-.073-.19-.147-.376-.164-.414-.017-.038.027-.07.097-.07.148 0 .47.614.39.743-.1.16-.19.087-.323-.26zm15.786.26c-.078-.126.24-.743.38-.743.16 0 .155.034-.064.463-.196.385-.23.416-.316.28zm-13.814-.812a6.41 6.41 0 0 0-.135-.373c-.11-.276-.108-.294.044-.294.123.001.33.443.33.704 0 .18-.18.153-.24-.036zm11.924.036c0-.267.21-.703.337-.703.138 0 .127.095-.07.62-.084.227-.266.283-.266.083zm-9.967-.588c-.147-.543-.152-.667-.027-.667.135 0 .24.268.24.62.003.245-.15.278-.212.047zm8.035.034c0-.33.127-.701.241-.701.15 0 .153.036.03.482-.093.333-.272.477-.272.218zm-6.013-.218c-.096-.157-.098-.793-.003-.824.1-.033.22.363.22.72 0 .172-.135.236-.217.104zm4.02-.349c.066-.48.097-.547.222-.47.125.077-.006.82-.153.87-.104.033-.118-.044-.069-.4zm-61.24-1.39c-.034-.036-.062-.176-.062-.313 0-.276.043-.287 1.633-.417l.76-.062v.282c0 .313-.04.325-1.336.438a8.56 8.56 0 0 0-.789.098c-.08.022-.173.012-.207-.022zm117.881-.04-1.065-.13c-.454-.055-.465-.063-.427-.328.047-.316-.002-.31 1.335-.165l.994.108-.028.276c-.033.33-.045.333-.81.238zm-59.406-3.157c-1.318-.432-2.168-1.458-2.37-2.862l-.067-.46-2.385-1.564c-1.312-.86-3.76-2.476-5.44-3.589-4.606-3.05-10.34-6.845-15.57-10.3-2.58-1.707-4.89-3.24-5.135-3.408-.308-.213-.59-.54-.927-1.074a101.74 101.74 0 0 0-1.144-1.77c-.363-.554-.643-1.023-.62-1.045.035-.036 1.266.172 2.892.488.373.073.794.132.938.132.26 0 .64.245 10.897 7.036a4496.25 4496.25 0 0 1 12.65 8.378c3.882 2.581 5.73 3.757 5.886 3.751.127-.005.5-.06.828-.124.501-.097.683-.094 1.12.02l.521.135 5.46-4.917c33.255-29.954 31.477-28.373 32.204-28.644 1.865-.695 2.838-1.022 2.89-.97.031.03-.308.813-.754 1.74l-.81 1.681-6.86 6.174c-3.772 3.396-12.076 10.87-18.45 16.611l-11.593 10.44v.96c0 .92-.012.985-.314 1.542-.582 1.072-1.523 1.663-2.75 1.727-.45.023-.85-.01-1.095-.09zm.014-2.61c-.03-.189-.012-.448.04-.574.09-.219.092-.216.1.093.004.276.057.352.371.53l.366.21.37-.233c.337-.213.37-.268.37-.626 0-.346-.037-.415-.3-.572-.387-.23-.14-.3.347-.096l.343.144-.134-.208c-.212-.326-.709-.545-1.123-.495-.937.115-1.436 1.155-.928 1.93.212.325.242.308.178-.1zm51.94-.69v-.99h8.555v1.93l-4.279.024-4.278.025zm-110.86-.024v-.966h8.65v1.932h-8.65zm1.887-5.763c-1.5-.142-1.518-.147-1.518-.466v-.284l.761.058c.42.033.958.086 1.196.118.4.055.435.08.435.318 0 .142-.03.273-.07.292-.037.018-.4.002-.804-.036zm114.928-.195a1.886 1.886 0 0 1-.034-.314c.03-.036 1.707-.216 2.012-.216.32 0 .345.02.345.266 0 .3-.067.322-1.242.424-.354.03-.732.074-.84.096-.16.032-.203-.01-.24-.259zm-113.83-5.772a26.117 26.117 0 0 0-.99-.23c-.725-.158-.835-.26-.63-.585.067-.106.26-.09 1.157.091.592.121 1.11.241 1.152.266.042.025.054.16.028.3-.052.271-.196.303-.717.16zm112.887-.15c-.033-.134-.027-.272.013-.308.041-.035.545-.16 1.12-.275.878-.178 1.057-.19 1.125-.084.078.124.116.45.051.45-.015 0-.498.104-1.07.23-.57.127-1.07.23-1.107.23-.038 0-.096-.11-.13-.243zM72.33 111.19c-.962-.333-1.013-.362-1.009-.58.003-.349.14-.346 1.236.022.599.201 1.105.381 1.124.4.076.077-.157.52-.267.507-.065-.008-.552-.164-1.083-.348zm110.407.192a.832.832 0 0 1-.1-.306c.002-.137 2.125-.84 2.223-.737.034.035.075.16.092.276.03.192-.05.24-.889.52-.506.17-.989.336-1.074.37-.102.042-.186 0-.253-.123zM74.54 105.47c-.582-.26-1.07-.482-1.085-.494-.043-.038.19-.507.251-.507.093 0 1.977.838 2.058.915.08.077-.012.558-.107.556-.033 0-.535-.213-1.117-.471zm105.993.227c-.06-.134-.078-.276-.038-.314.04-.04.523-.267 1.07-.506.817-.356 1.015-.412 1.083-.307.204.315.043.47-.96.922-.55.247-1.008.45-1.02.45-.014 0-.074-.11-.135-.245zm-97.575-2.436c-2.22-1.298-4.896-2.832-5.957-3.414-.392-.216-.713-.424-.713-.464 0-.04.064-.17.143-.29l.143-.22 1.444.85c.794.468 2.467 1.44 3.718 2.16l2.275 1.312-.146.223c-.08.123-.173.223-.205.222-.032-.001-.348-.171-.702-.38zm89.494.265a2.302 2.302 0 0 1-.15-.222c-.04-.069.847-.63 2.493-1.577a468.145 468.145 0 0 0 3.727-2.167l1.173-.695.152.231c.13.2.133.25.023.354-.071.067-1.185.722-2.475 1.456s-2.892 1.65-3.558 2.035c-.666.385-1.23.7-1.253.7-.024 0-.083-.052-.132-.115zm-91.8-8.642c-.503-.362-.932-.673-.953-.69-.06-.045.197-.489.283-.489.135 0 1.912 1.332 1.915 1.435 0 .056-.073.17-.165.252-.158.143-.22.114-1.08-.508zm93.847.423c-.085-.13-.141-.25-.125-.267.14-.138 1.85-1.335 1.905-1.335.083 0 .338.445.28.49-.232.175-1.72 1.24-1.8 1.286-.058.035-.172-.04-.26-.174zm-90.071-5.249-.88-.795.202-.214.2-.214.608.54c1.05.934 1.147 1.06 1.007 1.284-.067.107-.152.194-.19.194-.037 0-.464-.358-.947-.795zm86.299.614c-.088-.097-.145-.216-.127-.265.018-.049.405-.42.86-.828l.828-.739.215.202.215.201-.767.715c-.973.907-1.023.936-1.224.714zM88.76 85.738l-.804-.884.214-.228.214-.227.276.32c.152.177.52.595.819.93.298.335.526.619.506.63-.02.013-.123.095-.229.183-.188.158-.207.144-.995-.724zm77.663.638c-.144-.143-.122-.19.325-.696l.802-.91.323-.369.208.221.208.222-.752.843c-.413.463-.8.842-.856.842-.058 0-.174-.069-.258-.153zm-64.172-1.62c-.049-.062-.731-1.23-1.518-2.596a492.099 492.099 0 0 0-2.082-3.588l-.65-1.104.214-.16c.113-.087.232-.16.265-.16s.328.463.654 1.033c2.14 3.725 3.46 6.03 3.55 6.2.09.17.07.22-.117.342-.17.11-.24.118-.306.032zm51.425 0c-.138-.064-.192-.148-.156-.243.03-.08.71-1.284 1.51-2.675a787.975 787.975 0 0 0 2.03-3.542c.315-.557.606-1.047.646-1.09.04-.043.18-.007.31.078l.238.157-.245.427a345.302 345.302 0 0 0-2.601 4.475c-.725 1.265-1.364 2.348-1.42 2.406-.072.07-.16.07-.311 0zm-60.179-2.894c-.358-.492-.652-.938-.652-.99 0-.138.378-.35.463-.261.04.042.363.47.718.95.595.808.633.887.5 1.035-.08.089-.197.161-.26.161-.065 0-.41-.402-.77-.895zm68.28.756-.2-.141.501-.71c.276-.392.6-.833.719-.982l.217-.27.231.182.231.182-.668.913c-.367.502-.704.925-.748.94-.045.014-.171-.037-.282-.114zm-36.639-8.955v-4.337h2.023v8.555l-.39.001c-.216 0-.671.027-1.013.06l-.62.058v-4.337zm4.668 4.242-.53-.033v-8.546h2.025v8.647l-.483-.017c-.266-.01-.72-.032-1.012-.05zm-25.411-1.427a50.755 50.755 0 0 0-.455-1.023c-.182-.398-.33-.777-.33-.841 0-.105.437-.281.512-.206.06.059.962 2.121.938 2.14-.07.057-.434.23-.483.23-.031 0-.113-.135-.182-.3zm47.035.154-.25-.133.17-.398c.317-.72.755-1.674.784-1.704.064-.064.512.097.512.183 0 .096-.827 2.005-.915 2.112-.028.034-.163.002-.3-.07zm-41.647-3.047c-.17-.546-.327-1.06-.35-1.143-.03-.102.046-.18.239-.247l.28-.098.366 1.121c.2.617.337 1.15.302 1.184-.035.034-.169.088-.297.12-.226.056-.242.028-.54-.937zm36.055.895c-.127-.034-.226-.122-.22-.196.004-.074.164-.596.353-1.16l.344-1.023.267.093c.147.052.268.12.268.153 0 .115-.667 2.085-.725 2.14-.031.03-.16.027-.287-.007zm-29.943-1.58a23.457 23.457 0 0 1-.262-1.167l-.217-1.043.22-.084a1.36 1.36 0 0 1 .293-.084c.039 0 .162.445.274.989.111.543.223 1.082.247 1.196.03.139 0 .207-.089.207a.935.935 0 0 0-.277.055c-.08.022-.164-.008-.19-.078zm24.07.039c-.167-.041-.205-.096-.17-.248.026-.11.14-.646.254-1.19.114-.543.24-.988.278-.988.217 0 .534.193.493.3a18.84 18.84 0 0 0-.257 1.124c-.116.55-.25 1.01-.297 1.019a1.19 1.19 0 0 1-.301-.025zm-18.143-1.024c-.002-.037-.06-.544-.13-1.125-.069-.582-.106-1.09-.082-1.127.024-.041.157-.071.297-.071h.253l.11 1.045c.147 1.414.155 1.347-.168 1.347-.152 0-.278-.032-.28-.07zm12.093-.781c.107-1.456.131-1.541.43-1.541.142 0 .276.03.297.069.022.038-.015.524-.082 1.08a41.43 41.43 0 0 0-.126 1.128c-.003.066-.126.115-.293.115h-.29z" fill="#fff" stroke="#000" stroke-width=".092"/><path d="M128.143 155.232a1.046 1.06 0 0 0-1.045 1.06 1.046 1.06 0 0 0 .652.981l-.063 18.227.516 1.172.484-1.14-.156-18.257a1.046 1.06 0 0 0 .658-.982 1.046 1.06 0 0 0-1.046-1.06z" fill="#ff8080" stroke="#000" stroke-dasharray="none" stroke-linecap="butt" stroke-linejoin="miter" stroke-miterlimit="4" stroke-opacity="1" stroke-width=".092"/></svg>