<svg xmlns="http://www.w3.org/2000/svg" cursor="default" version="1.1" viewBox="0 0 256 256"><path d="M130.369 138.715c-3.188-.583-4.386-2.352-5.006-5.723l1.865-.026c.576 2.156 2.838 4.395 5.39 4.045 2.253-.308 3.83-1.685 4.128-4.08.282-2.25.062-5.4-.523-6.73-.863-1.95-2.492-2.88-5.072-2.35-1.155.239-1.612.498-2.498 1.417-.758.786-.767.81-1.001 1.054l-1.706.03.079-12.9 12.026.004-.015 1.64-10.332-.02-.018 9.004c2.153-2.846 6.127-2.207 7.933-1.281 2.16 1.108 3.094 2.955 3.274 6.472.18 3.544-.057 5.095-1.026 6.714-.634 1.058-1.103 1.495-2.195 2.046-1.567.79-3.572 1.05-5.303.692zM91.9 115.759l-4.446 3.83-.003-2.207 4.57-3.938h1.887l.01 25.204-2.044.021zm13.502 22.621c-1.214-.439-2.728-1.789-3.385-3.017-.55-1.031-.564-1.252-.564-9.264 0-7.933.018-8.241.546-9.218 1.28-2.368 3.1-3.412 5.94-3.403 2.826.009 4.755 1.135 5.904 3.449.434.874.486 1.703.553 8.85.07 7.625.055 7.926-.478 9.163-.646 1.5-2.4 3.159-3.733 3.53-1.22.338-3.74.292-4.795-.09zm4.713-1.524c.944-.49 1.723-1.376 2.185-2.481.323-.774.39-2.218.385-8.33-.006-8.15-.092-8.676-1.66-10.13-1.548-1.435-4.473-1.427-6.187.016-1.646 1.384-1.732 1.884-1.738 10.113-.005 6.093.063 7.56.383 8.325.833 1.995 2.13 2.84 4.359 2.841.876 0 1.897-.158 2.273-.354zm32.351-.707c-.75-1.154-2.1-3.17-.964-6.994 2.237-5.613 7.468-15.712 7.468-15.712l2.107-.003s-1.716 3.154-3.246 6.211c-2.665 5.326-3.294 5.625-2.65 5.363 2.63-1.064 4.99-.341 6.09.16 1.83.834 3.25 3.936 3.28 6.24.04 2.531-1.111 5.918-3.52 6.921-1.212.505-3.852.44-5.3.107-1.444-.335-2.506-1.14-3.256-2.293zm7.977.27c1.324-1.032 2.248-2.822 2.154-4.53-.1-1.84-.369-3.21-1.082-3.97-1.102-1.18-3.748-2.11-5.36-1.32-1.815.89-3.2 2.46-3.2 5.16 0 2.38.86 3.773 2.523 4.8.928.574 4.068.55 4.965-.149zm8.048 1.67c-.476-.37-.344-.542-.337-1.112.016-1.25.367-1.385 2.18-1.37.816.007.878-.054.805-.694-.07-.606-.204-.705-1.045-.774-.53-.044-1.127.055-1.326.22-.286.238-.36.22-.36-.083 0-.755 2.046-1.106 2.98-.452.5.35.49.76.49 2.547 0 1.17.152 1.983.004 1.983-.138 0-.643.109-.643-.035 0-.19.134-.38-.543-.2-.676.172-1.795.2-2.205-.039zm2.413-.573c.24-.137.28-.51.28-.837 0-.55-.087-.589-1.173-.517-1.343.088-1.444.463-1.366 1.091.08.63 2.02.4 2.259.263zm2.144-1.522c-.025-1.666-.003-2.5-.003-2.5l.55.008s.04.414.173.281c1.723-.939 2.842.324 2.842.324s2.144-1.577 2.975-.133c.437.76.425 4.403.425 4.403l-.608-.002s-.033-4.318-1.473-4.291c-1.606.03-1.16 4.207-1.16 4.207l-.596-.008s.164-4.278-1.156-4.25c-1.32.028-1.245 2.113-1.35 4.371l-.636.02zm-44.04-4.89h2.524v2.524h-2.525zm40.308-1.92 2.145-4.479-2.28-.022-.05-.59 3.263-.048-2.184 5.14zm8.593-3.35c-1.32.041-1.37-1.95-.053-1.98 1.318-.028 1.375 1.938.053 1.98zm.001-1.47c-.67.02-.71 1.044.006 1.018.718-.026.666-1.036-.006-1.017zm-48.903-4.183h2.525v2.526h-2.525zm44.202 8.967 2.145-4.48-2.28-.02-.05-.59 3.264-.049-2.184 5.138z" fill="#fff" stroke="#000" stroke-width=".253"/></svg>